<svg id="Capa_1" data-name="Capa 1" xmlns="http://www.w3.org/2000/svg" xmlns:xlink="http://www.w3.org/1999/xlink" viewBox="0 0 56 56"><defs><style>.cls-1,.cls-2{fill:none;}.cls-2{stroke:#8c9ba3;stroke-miterlimit:10;}.cls-3{clip-path:url(#clip-path);}.cls-4{clip-path:url(#clip-path-2);}.cls-5{clip-path:url(#clip-path-3);}.cls-6{clip-path:url(#clip-path-5);}.cls-7{clip-path:url(#clip-path-6);}.cls-8{fill:#8c9ba3;}.cls-9{fill:#fff;}</style><clipPath id="clip-path"><rect class="cls-1" x="6.39" y="-220.9" width="19.12" height="42.53"/></clipPath><clipPath id="clip-path-2"><rect class="cls-1" x="-120.04" y="-830.94" width="596" height="1418"/></clipPath><clipPath id="clip-path-3"><rect class="cls-1" x="30.49" y="-220.9" width="19.12" height="42.53"/></clipPath><clipPath id="clip-path-5"><path class="cls-2" d="M122.61-276A18.61,18.61,0,0,1,104-257.39,18.61,18.61,0,0,1,85.39-276,18.61,18.61,0,0,1,104-294.61,18.61,18.61,0,0,1,122.61-276Z"/></clipPath><clipPath id="clip-path-6"><rect class="cls-2" x="-360.67" y="-685.92" width="596" height="1418"/></clipPath></defs><title>Gris_AdminPublica_2</title><g class="cls-6"><g class="cls-7"><rect class="cls-2" x="-360.67" y="-685.92" width="596" height="1418"/></g><rect class="cls-2" x="-360.67" y="-685.92" width="596" height="1418"/><g class="cls-7"><rect class="cls-2" x="-360.67" y="-685.92" width="596" height="1418"/></g><rect class="cls-2" x="-360.67" y="-685.92" width="596" height="1418"/><g class="cls-7"><rect class="cls-2" x="-360.67" y="-685.92" width="596" height="1418"/></g><rect class="cls-2" x="-360.67" y="-685.92" width="596" height="1418"/><g class="cls-7"><rect class="cls-2" x="-360.67" y="-685.92" width="596" height="1418"/></g><rect class="cls-2" x="-360.67" y="-685.92" width="596" height="1418"/></g><path class="cls-2" d="M122.61-276A18.61,18.61,0,0,1,104-257.39,18.61,18.61,0,0,1,85.39-276,18.61,18.61,0,0,1,104-294.61,18.61,18.61,0,0,1,122.61-276Z"/><rect class="cls-8" width="56" height="56" rx="4.2"/><rect class="cls-9" x="11.81" y="19.49" width="32.38" height="1.9"/><polygon class="cls-9" points="48.14 18.4 7.86 18.4 28 9.09 48.14 18.4"/><polygon class="cls-9" points="13.13 22.54 16.62 22.54 16.98 39.43 12.77 39.43 13.13 22.54"/><polygon class="cls-9" points="21.88 22.63 25.37 22.63 25.73 39.52 21.52 39.52 21.88 22.63"/><polygon class="cls-9" points="30.63 22.36 34.12 22.36 34.48 39.25 30.27 39.25 30.63 22.36"/><polygon class="cls-9" points="39.38 22.36 42.87 22.36 43.23 39.25 39.02 39.25 39.38 22.36"/><rect class="cls-9" x="9.88" y="40.79" width="36.24" height="2.53"/><rect class="cls-9" x="7.11" y="42.58" width="41.77" height="2.53"/><rect class="cls-9" x="5.2" y="44.38" width="45.59" height="2.53"/></svg>