<svg id="Capa_1" data-name="Capa 1" xmlns="http://www.w3.org/2000/svg" xmlns:xlink="http://www.w3.org/1999/xlink" viewBox="0 0 56 56"><defs><style>.cls-1,.cls-6{fill:none;stroke:#8c9ba3;}.cls-1{stroke-miterlimit:10;}.cls-2{clip-path:url(#clip-path);}.cls-3{clip-path:url(#clip-path-2);}.cls-4{fill:#8c9ba3;}.cls-5{fill:#fff;fill-rule:evenodd;}.cls-6{stroke-linecap:round;stroke-width:1.16px;}</style><clipPath id="clip-path"><path class="cls-1" d="M426.61-352A18.61,18.61,0,0,1,408-333.39,18.61,18.61,0,0,1,389.39-352,18.61,18.61,0,0,1,408-370.61,18.61,18.61,0,0,1,426.61-352Z"/></clipPath><clipPath id="clip-path-2"><rect class="cls-1" x="-56.67" y="-761.92" width="596" height="1418"/></clipPath></defs><title>Gris_Ciencia_Tecnologia_2</title><g class="cls-2"><g class="cls-3"><rect class="cls-1" x="-56.67" y="-761.92" width="596" height="1418"/></g><rect class="cls-1" x="-56.67" y="-761.92" width="596" height="1418"/><g class="cls-3"><rect class="cls-1" x="-56.67" y="-761.92" width="596" height="1418"/></g><rect class="cls-1" x="-56.67" y="-761.92" width="596" height="1418"/><g class="cls-3"><rect class="cls-1" x="-56.67" y="-761.92" width="596" height="1418"/></g><rect class="cls-1" x="-56.67" y="-761.92" width="596" height="1418"/><g class="cls-3"><rect class="cls-1" x="-56.67" y="-761.92" width="596" height="1418"/></g><rect class="cls-1" x="-56.67" y="-761.92" width="596" height="1418"/></g><path class="cls-1" d="M426.61-352A18.61,18.61,0,0,1,408-333.39,18.61,18.61,0,0,1,389.39-352,18.61,18.61,0,0,1,408-370.61,18.61,18.61,0,0,1,426.61-352Z"/><rect class="cls-4" width="56" height="56" rx="4.2"/><path class="cls-5" d="M13.8,46.14c0-4.1,9.59-16.25,9.59-16.25V9.58H22.23C21.16,9,21.26,8,22.23,7H34.31a1.65,1.65,0,0,1,0,2.58H33V29.86s9.19,11.34,9.19,16.28C42.21,50,13.8,49.89,13.8,46.14Z"/><polyline class="cls-6" points="31.15 9.23 31.15 30.63 39.84 45.69"/><line class="cls-6" x1="21.49" y1="14.04" x2="24.94" y2="14.04"/><line class="cls-6" x1="21.49" y1="19.16" x2="24.94" y2="19.16"/><line class="cls-6" x1="21.49" y1="24.28" x2="24.94" y2="24.28"/><line class="cls-6" x1="21.49" y1="29.41" x2="24.94" y2="29.41"/><line class="cls-6" x1="18.3" y1="34.53" x2="21.76" y2="34.53"/><line class="cls-6" x1="15.16" y1="39.65" x2="18.62" y2="39.65"/></svg>