<svg id="Capa_1" data-name="Capa 1" xmlns="http://www.w3.org/2000/svg" xmlns:xlink="http://www.w3.org/1999/xlink" viewBox="0 0 56 56"><defs><style>.cls-1,.cls-11,.cls-2,.cls-8{fill:none;}.cls-11,.cls-2,.cls-8{stroke:#8c9ba3;}.cls-2,.cls-8{stroke-miterlimit:10;}.cls-3{clip-path:url(#clip-path);}.cls-4{clip-path:url(#clip-path-2);}.cls-5{clip-path:url(#clip-path-3);}.cls-6{fill:#8c9ba3;}.cls-7{fill:#fff;}.cls-8{stroke-width:0.5px;}.cls-9{clip-path:url(#clip-path-5);}.cls-10{clip-path:url(#clip-path-6);}.cls-11{stroke-linecap:round;stroke-linejoin:round;stroke-width:1.92px;}</style><clipPath id="clip-path"><rect class="cls-1" x="-69.61" y="159.1" width="19.12" height="42.53"/></clipPath><clipPath id="clip-path-2"><rect class="cls-1" x="-196.04" y="-450.94" width="596" height="1418"/></clipPath><clipPath id="clip-path-3"><rect class="cls-1" x="-45.51" y="159.1" width="19.12" height="42.53"/></clipPath><clipPath id="clip-path-5"><path class="cls-2" d="M46.61,104A18.61,18.61,0,1,1,28,85.39,18.61,18.61,0,0,1,46.61,104Z"/></clipPath><clipPath id="clip-path-6"><rect class="cls-2" x="-436.67" y="-305.92" width="596" height="1418"/></clipPath></defs><title>Gris_Demo_2_Mov.Migratorios</title><path class="cls-6" d="M56,4.2V51.8A4.19,4.19,0,0,1,51.8,56H4.2A4.19,4.19,0,0,1,0,51.8V4.2A4.2,4.2,0,0,1,4.2,0H51.8A4.19,4.19,0,0,1,56,4.2Z"/><path class="cls-7" d="M28.86,14.66l-.86,0c-4.45.08-10.89,0-10.89,12.57,0,2.68,0,5.77,1.64,5.77s1.73-3,1.73-5.77c0-4.07,1.26-6.3,2.77-7.51a11.76,11.76,0,0,0-.41,3.15V49a1.79,1.79,0,0,0,1.79,1.8h.61A1.79,1.79,0,0,0,27,49V32.1H29.1V49a1.79,1.79,0,0,0,1.79,1.8h.61A1.79,1.79,0,0,0,33.29,49V22.89a12.27,12.27,0,0,0-.36-3c1.45,1.25,2.62,3.45,2.62,7.33,0,2.82.09,5.77,1.71,5.77s1.68-3.09,1.67-5.77C38.85,15.32,33.23,14.63,28.86,14.66Z"/><path class="cls-7" d="M32,9.2a4,4,0,1,1-4-4A4,4,0,0,1,32,9.2Z"/><path class="cls-8" d="M19,31.65a.88.88,0,0,0-.83.92v1.26H17a.93.93,0,0,0-.93.93V46.57a.92.92,0,0,0,.93.92h3.87a.92.92,0,0,0,.93-.92V34.76a.93.93,0,0,0-.93-.93h-1.1V32.57A.88.88,0,0,0,19,31.65Z"/><path class="cls-8" d="M37.05,31.65a.88.88,0,0,0-.84.92v1.26h-1.1a.93.93,0,0,0-.92.93V46.57a.92.92,0,0,0,.92.92H39a.92.92,0,0,0,.92-.92V34.76a.93.93,0,0,0-.92-.93h-1.1V32.57A.88.88,0,0,0,37.05,31.65Z"/><g class="cls-9"><g class="cls-10"><rect class="cls-2" x="-436.67" y="-305.92" width="596" height="1418"/></g><rect class="cls-2" x="-436.67" y="-305.92" width="596" height="1418"/><g class="cls-10"><rect class="cls-2" x="-436.67" y="-305.92" width="596" height="1418"/></g><rect class="cls-2" x="-436.67" y="-305.92" width="596" height="1418"/><g class="cls-10"><rect class="cls-2" x="-436.67" y="-305.92" width="596" height="1418"/></g><rect class="cls-2" x="-436.67" y="-305.92" width="596" height="1418"/><g class="cls-10"><g class="cls-10"><path class="cls-11" d="M27.42,93.4c-8.48,3.82-21-1-28.06-10.76S-6.48,61.86,2,58,23,59,30.06,68.8,35.89,89.57,27.42,93.4Z"/></g><rect class="cls-2" x="-436.67" y="-305.92" width="596" height="1418"/></g><rect class="cls-2" x="-436.67" y="-305.92" width="596" height="1418"/></g><path class="cls-2" d="M46.61,104A18.61,18.61,0,1,1,28,85.39,18.61,18.61,0,0,1,46.61,104Z"/></svg>