<svg id="Capa_1" data-name="Capa 1" xmlns="http://www.w3.org/2000/svg" xmlns:xlink="http://www.w3.org/1999/xlink" viewBox="0 0 56 56"><defs><style>.cls-1,.cls-2,.cls-8{fill:none;}.cls-2,.cls-8{stroke:#8c9ba3;}.cls-2{stroke-miterlimit:10;}.cls-3{clip-path:url(#clip-path);}.cls-4{clip-path:url(#clip-path-2);}.cls-5{clip-path:url(#clip-path-3);}.cls-6{fill:#8c9ba3;}.cls-7{fill:#fff;}.cls-8{stroke-linecap:round;stroke-linejoin:round;stroke-width:0.87px;}.cls-9{clip-path:url(#clip-path-5);}.cls-10{clip-path:url(#clip-path-6);}</style><clipPath id="clip-path"><rect class="cls-1" x="6.39" y="159.1" width="19.12" height="42.53"/></clipPath><clipPath id="clip-path-2"><rect class="cls-1" x="-120.04" y="-450.94" width="596" height="1418"/></clipPath><clipPath id="clip-path-3"><rect class="cls-1" x="30.49" y="159.1" width="19.12" height="42.53"/></clipPath><clipPath id="clip-path-5"><path class="cls-2" d="M122.61,104A18.61,18.61,0,1,1,104,85.39,18.61,18.61,0,0,1,122.61,104Z"/></clipPath><clipPath id="clip-path-6"><rect class="cls-2" x="-360.67" y="-305.92" width="596" height="1418"/></clipPath></defs><title>Gris_Demo_2_Poblacion</title><path class="cls-6" d="M56,4.2V51.8A4.19,4.19,0,0,1,51.8,56H4.2A4.19,4.19,0,0,1,0,51.8V4.2A4.19,4.19,0,0,1,4.2,0H51.8A4.19,4.19,0,0,1,56,4.2Z"/><path class="cls-7" d="M19.5,18.65a6.89,6.89,0,0,1,6.93,6.9v7.82a46.2,46.2,0,0,1-6.93,1,46.43,46.43,0,0,1-6.93-1V25.55A6.89,6.89,0,0,1,19.5,18.65Z"/><path class="cls-8" d="M19.5,18.65a6.89,6.89,0,0,1,6.93,6.9v7.82a46.2,46.2,0,0,1-6.93,1,46.43,46.43,0,0,1-6.93-1V25.55A6.89,6.89,0,0,1,19.5,18.65Z"/><path class="cls-7" d="M24,14.08a4.5,4.5,0,1,1-4.5-4.49A4.48,4.48,0,0,1,24,14.08Z"/><path class="cls-8" d="M24,14.08a4.5,4.5,0,1,1-4.5-4.49A4.48,4.48,0,0,1,24,14.08Z"/><path class="cls-7" d="M36.5,18.65a6.89,6.89,0,0,1,6.92,6.9v7.82a46.22,46.22,0,0,1-6.92,1,46.2,46.2,0,0,1-6.93-1V25.55A6.89,6.89,0,0,1,36.5,18.65Z"/><path class="cls-8" d="M36.5,18.65a6.89,6.89,0,0,1,6.92,6.9v7.82a46.22,46.22,0,0,1-6.92,1,46.2,46.2,0,0,1-6.93-1V25.55A6.89,6.89,0,0,1,36.5,18.65Z"/><path class="cls-7" d="M41,14.08a4.51,4.51,0,1,1-4.5-4.49A4.49,4.49,0,0,1,41,14.08Z"/><path class="cls-8" d="M41,14.08a4.51,4.51,0,1,1-4.5-4.49A4.49,4.49,0,0,1,41,14.08Z"/><path class="cls-7" d="M28,17.51a6.9,6.9,0,0,1,6.93,6.9v7.83a46.2,46.2,0,0,1-6.93,1,46.2,46.2,0,0,1-6.93-1V24.41A6.9,6.9,0,0,1,28,17.51Z"/><path class="cls-8" d="M28,17.51a6.9,6.9,0,0,1,6.93,6.9v7.83a46.2,46.2,0,0,1-6.93,1,46.2,46.2,0,0,1-6.93-1V24.41A6.9,6.9,0,0,1,28,17.51Z"/><path class="cls-7" d="M32.5,13A4.5,4.5,0,1,1,28,8.46,4.49,4.49,0,0,1,32.5,13Z"/><path class="cls-8" d="M32.5,13A4.5,4.5,0,1,1,28,8.46,4.49,4.49,0,0,1,32.5,13Z"/><path class="cls-7" d="M11,22.84a6.9,6.9,0,0,1,6.93,6.91v7.83a46.41,46.41,0,0,1-6.93,1,46.65,46.65,0,0,1-6.92-1V29.75A6.9,6.9,0,0,1,11,22.84Z"/><path class="cls-8" d="M11,22.84a6.9,6.9,0,0,1,6.93,6.91v7.83a46.41,46.41,0,0,1-6.93,1,46.65,46.65,0,0,1-6.92-1V29.75A6.9,6.9,0,0,1,11,22.84Z"/><path class="cls-7" d="M15.51,18.28A4.51,4.51,0,1,1,11,13.79,4.5,4.5,0,0,1,15.51,18.28Z"/><path class="cls-8" d="M15.51,18.28A4.51,4.51,0,1,1,11,13.79,4.5,4.5,0,0,1,15.51,18.28Z"/><path class="cls-7" d="M45,22.84a6.9,6.9,0,0,1,6.93,6.91v7.83a46.63,46.63,0,0,1-6.93,1,46.43,46.43,0,0,1-6.92-1V29.75A6.9,6.9,0,0,1,45,22.84Z"/><path class="cls-8" d="M45,22.84a6.9,6.9,0,0,1,6.93,6.91v7.83a46.63,46.63,0,0,1-6.93,1,46.43,46.43,0,0,1-6.92-1V29.75A6.9,6.9,0,0,1,45,22.84Z"/><path class="cls-7" d="M49.5,18.28A4.51,4.51,0,1,1,45,13.79,4.5,4.5,0,0,1,49.5,18.28Z"/><path class="cls-8" d="M49.5,18.28A4.51,4.51,0,1,1,45,13.79,4.5,4.5,0,0,1,49.5,18.28Z"/><path class="cls-7" d="M17.68,27.69A6.9,6.9,0,0,1,24.6,34.6v7.82a46.22,46.22,0,0,1-6.92,1,46.2,46.2,0,0,1-6.93-1V34.6A6.9,6.9,0,0,1,17.68,27.69Z"/><path class="cls-8" d="M17.68,27.69A6.9,6.9,0,0,1,24.6,34.6v7.82a46.22,46.22,0,0,1-6.92,1,46.2,46.2,0,0,1-6.93-1V34.6A6.9,6.9,0,0,1,17.68,27.69Z"/><path class="cls-7" d="M22.18,23.13a4.51,4.51,0,1,1-4.5-4.49A4.5,4.5,0,0,1,22.18,23.13Z"/><path class="cls-8" d="M22.18,23.13a4.51,4.51,0,1,1-4.5-4.49A4.5,4.5,0,0,1,22.18,23.13Z"/><path class="cls-7" d="M38.32,27.69a6.9,6.9,0,0,1,6.93,6.91v7.82a46.2,46.2,0,0,1-6.93,1,46.22,46.22,0,0,1-6.92-1V34.6A6.9,6.9,0,0,1,38.32,27.69Z"/><path class="cls-8" d="M38.32,27.69a6.9,6.9,0,0,1,6.93,6.91v7.82a46.2,46.2,0,0,1-6.93,1,46.22,46.22,0,0,1-6.92-1V34.6A6.9,6.9,0,0,1,38.32,27.69Z"/><path class="cls-7" d="M42.83,23.13a4.51,4.51,0,1,1-4.51-4.49A4.5,4.5,0,0,1,42.83,23.13Z"/><path class="cls-8" d="M42.83,23.13a4.51,4.51,0,1,1-4.51-4.49A4.5,4.5,0,0,1,42.83,23.13Z"/><path class="cls-7" d="M28,31.81a6.91,6.91,0,0,1,6.93,6.91v7.82a46.2,46.2,0,0,1-6.93,1,46.2,46.2,0,0,1-6.93-1V38.72A6.91,6.91,0,0,1,28,31.81Z"/><path class="cls-8" d="M28,31.81a6.91,6.91,0,0,1,6.93,6.91v7.82a46.2,46.2,0,0,1-6.93,1,46.2,46.2,0,0,1-6.93-1V38.72A6.91,6.91,0,0,1,28,31.81Z"/><path class="cls-7" d="M32.5,27.25A4.5,4.5,0,1,1,28,22.76,4.5,4.5,0,0,1,32.5,27.25Z"/><path class="cls-8" d="M32.5,27.25A4.5,4.5,0,1,1,28,22.76,4.5,4.5,0,0,1,32.5,27.25Z"/><g class="cls-9"><g class="cls-10"><rect class="cls-2" x="-360.67" y="-305.92" width="596" height="1418"/></g><rect class="cls-2" x="-360.67" y="-305.92" width="596" height="1418"/><g class="cls-10"><rect class="cls-2" x="-360.67" y="-305.92" width="596" height="1418"/></g><rect class="cls-2" x="-360.67" y="-305.92" width="596" height="1418"/><g class="cls-10"><rect class="cls-2" x="-360.67" y="-305.92" width="596" height="1418"/></g><rect class="cls-2" x="-360.67" y="-305.92" width="596" height="1418"/><g class="cls-10"><rect class="cls-2" x="-360.67" y="-305.92" width="596" height="1418"/></g><rect class="cls-2" x="-360.67" y="-305.92" width="596" height="1418"/></g><path class="cls-2" d="M122.61,104A18.61,18.61,0,1,1,104,85.39,18.61,18.61,0,0,1,122.61,104Z"/></svg>