<svg id="Capa_1" data-name="Capa 1" xmlns="http://www.w3.org/2000/svg" xmlns:xlink="http://www.w3.org/1999/xlink" viewBox="0 0 56 56"><defs><style>.cls-1,.cls-4,.cls-5{fill:none;stroke:#8c9ba3;}.cls-1{stroke-miterlimit:10;}.cls-2{fill:#8c9ba3;}.cls-3{fill:#fff;}.cls-4,.cls-5{stroke-linecap:round;stroke-linejoin:round;}.cls-4{stroke-width:1.53px;}.cls-5{stroke-width:1.53px;}.cls-6{clip-path:url(#clip-path);}.cls-7{clip-path:url(#clip-path-2);}</style><clipPath id="clip-path"><path class="cls-1" d="M426.61,28A18.61,18.61,0,1,1,408,9.39,18.61,18.61,0,0,1,426.61,28Z"/></clipPath><clipPath id="clip-path-2"><rect class="cls-1" x="-56.67" y="-381.92" width="596" height="1418"/></clipPath></defs><title>Gris_Demo_2_MNP</title><rect class="cls-2" width="56" height="56" rx="4.2"/><path class="cls-3" d="M27.79,24a11,11,0,0,1,11,11V45.88c0,1.52-7.29,3.2-11,3.2s-11-1.63-11-3.2V35A11,11,0,0,1,27.79,24Z"/><path class="cls-4" d="M27.79,24a11,11,0,0,1,11,11V45.88c0,1.52-7.29,3.2-11,3.2s-11-1.63-11-3.2V35A11,11,0,0,1,27.79,24Z"/><path class="cls-3" d="M34.94,16.77a7.15,7.15,0,1,1-7.15-7.14A7.14,7.14,0,0,1,34.94,16.77Z"/><path class="cls-4" d="M34.94,16.77a7.15,7.15,0,1,1-7.15-7.14A7.14,7.14,0,0,1,34.94,16.77Z"/><path class="cls-3" d="M40.49,35c0,5.45-5.68,9.86-12.7,9.86S15.09,40.44,15.09,35s5.69-9.86,12.7-9.86S40.49,29.55,40.49,35Z"/><path class="cls-3" d="M21.87,31.11a4.3,4.3,0,0,1,6.11-.2l5.23,4.65c1.67,1.48,2.91,4.07.88,6.42s-5.08,1.11-6.48-.13L22.39,37.2A4.31,4.31,0,0,1,21.87,31.11Z"/><path class="cls-4" d="M21.87,31.11a4.3,4.3,0,0,1,6.11-.2l5.23,4.65c1.67,1.48,2.91,4.07.88,6.42s-5.08,1.11-6.48-.13L22.39,37.2A4.31,4.31,0,0,1,21.87,31.11Z"/><path class="cls-3" d="M22.14,26.39a3.71,3.71,0,1,1-5.37.17A3.81,3.81,0,0,1,22.14,26.39Z"/><path class="cls-5" d="M22.14,26.39a3.71,3.71,0,1,1-5.37.17A3.81,3.81,0,0,1,22.14,26.39Z"/><path class="cls-3" d="M30.21,46a103.46,103.46,0,0,1-11.39,0c.64-3.49.72-2.95-.46-5.83-1.6-5.6-3-5.94,7-7.29,5.87-.79,7.61,10.53,6.47,11.64Z"/><g class="cls-6"><g class="cls-7"><rect class="cls-1" x="-56.67" y="-381.92" width="596" height="1418"/></g><rect class="cls-1" x="-56.67" y="-381.92" width="596" height="1418"/><g class="cls-7"><rect class="cls-1" x="-56.67" y="-381.92" width="596" height="1418"/></g><rect class="cls-1" x="-56.67" y="-381.92" width="596" height="1418"/><g class="cls-7"><rect class="cls-1" x="-56.67" y="-381.92" width="596" height="1418"/></g><rect class="cls-1" x="-56.67" y="-381.92" width="596" height="1418"/><g class="cls-7"><rect class="cls-1" x="-56.67" y="-381.92" width="596" height="1418"/></g><rect class="cls-1" x="-56.67" y="-381.92" width="596" height="1418"/></g><path class="cls-1" d="M426.61,28A18.61,18.61,0,1,1,408,9.39,18.61,18.61,0,0,1,426.61,28Z"/></svg>