<svg id="Capa_1" data-name="Capa 1" xmlns="http://www.w3.org/2000/svg" xmlns:xlink="http://www.w3.org/1999/xlink" viewBox="0 0 56 56"><defs><style>.cls-1,.cls-2{fill:none;}.cls-2{stroke:#8c9ba3;stroke-miterlimit:10;}.cls-3{fill:#8c9ba3;}.cls-4{fill:#fff;fill-rule:evenodd;}.cls-5{clip-path:url(#clip-path);}.cls-6{clip-path:url(#clip-path-2);}.cls-7{clip-path:url(#clip-path-3);}.cls-8{clip-path:url(#clip-path-5);}.cls-9{clip-path:url(#clip-path-6);}</style><clipPath id="clip-path"><rect class="cls-1" x="82.39" y="-68.9" width="19.12" height="42.53"/></clipPath><clipPath id="clip-path-2"><rect class="cls-1" x="-44.04" y="-678.94" width="596" height="1418"/></clipPath><clipPath id="clip-path-3"><rect class="cls-1" x="106.49" y="-68.9" width="19.12" height="42.53"/></clipPath><clipPath id="clip-path-5"><path class="cls-2" d="M198.61-124A18.61,18.61,0,0,1,180-105.39,18.61,18.61,0,0,1,161.39-124,18.61,18.61,0,0,1,180-142.61,18.61,18.61,0,0,1,198.61-124Z"/></clipPath><clipPath id="clip-path-6"><rect class="cls-2" x="-284.67" y="-533.92" width="596" height="1418"/></clipPath></defs><title>Gris_Empleo_2</title><path class="cls-3" d="M56,4.2V51.8A4.19,4.19,0,0,1,51.8,56H4.2A4.19,4.19,0,0,1,0,51.8V4.2A4.19,4.19,0,0,1,4.2,0H51.8A4.19,4.19,0,0,1,56,4.2Z"/><path class="cls-4" d="M3.53,14.85l15.75,7.47,4.47.52c-1.31,3.07-3.31,5.64-1.17,7.21,1.88,1.33,2.37.4,3.88-1.79a1.92,1.92,0,0,1,2.27-.44c.44.44,7.33,7.91,7.69,8.35s.88,1.24.22,1.68c-2.42,1.62-4.66,3.38-7.84,3.3-1.66,0-1.75-3.88-3.77-5.13-5.28-3.24-9.17-4-10.3-2.22l-4.61-2.17-2.93,5L3.68,34.92Z"/><path class="cls-4" d="M52.1,15.88l.37,19.7-6,3.15s-.66-1.1-1.46-2.27-1-1.17-1.91-.88S41.7,36,41,35.51a12.24,12.24,0,0,0-2-1.1s-1,1.47-1.47,1.1-6.86-6.63-7.76-7.84c-1.29-1.72-3.1-1.58-4-.11-.58.94-1.57,2.42-2.39,1.87-1.45-1-.66-3,1.65-5.83,3.4-2.86,7.29-1,10.88.92Z"/><path class="cls-4" d="M23,36.17c1,.7,3.57,2.2,2.77,4-.4.91-3,.47-5.25-.87s-4.54-3.56-4-4.63C17.21,33.1,21.81,35.44,23,36.17Z"/><g class="cls-8"><g class="cls-9"><rect class="cls-2" x="-284.67" y="-533.92" width="596" height="1418"/></g><rect class="cls-2" x="-284.67" y="-533.92" width="596" height="1418"/><g class="cls-9"><rect class="cls-2" x="-284.67" y="-533.92" width="596" height="1418"/></g><rect class="cls-2" x="-284.67" y="-533.92" width="596" height="1418"/><g class="cls-9"><rect class="cls-2" x="-284.67" y="-533.92" width="596" height="1418"/></g><rect class="cls-2" x="-284.67" y="-533.92" width="596" height="1418"/><g class="cls-9"><rect class="cls-2" x="-284.67" y="-533.92" width="596" height="1418"/></g><rect class="cls-2" x="-284.67" y="-533.92" width="596" height="1418"/></g><path class="cls-2" d="M198.61-124A18.61,18.61,0,0,1,180-105.39,18.61,18.61,0,0,1,161.39-124,18.61,18.61,0,0,1,180-142.61,18.61,18.61,0,0,1,198.61-124Z"/></svg>