<svg id="Capa_1" data-name="Capa 1" xmlns="http://www.w3.org/2000/svg" xmlns:xlink="http://www.w3.org/1999/xlink" viewBox="0 0 56 56"><defs><style>.cls-1,.cls-2,.cls-9{fill:none;}.cls-2{stroke:#8c9ba3;stroke-miterlimit:10;}.cls-3{clip-path:url(#clip-path);}.cls-4{clip-path:url(#clip-path-2);}.cls-5{clip-path:url(#clip-path-3);}.cls-6{clip-path:url(#clip-path-5);}.cls-7{clip-path:url(#clip-path-6);}.cls-8{fill:#8c9ba3;}.cls-9{stroke:#fff;stroke-linecap:round;stroke-width:3.6px;}.cls-10{fill:#fff;}</style><clipPath id="clip-path"><rect class="cls-1" x="-69.61" y="7.1" width="19.12" height="42.53"/></clipPath><clipPath id="clip-path-2"><rect class="cls-1" x="-196.04" y="-602.94" width="596" height="1418"/></clipPath><clipPath id="clip-path-3"><rect class="cls-1" x="-45.51" y="7.1" width="19.12" height="42.53"/></clipPath><clipPath id="clip-path-5"><path class="cls-2" d="M46.61-48A18.61,18.61,0,0,1,28-29.39,18.61,18.61,0,0,1,9.39-48,18.61,18.61,0,0,1,28-66.61,18.61,18.61,0,0,1,46.61-48Z"/></clipPath><clipPath id="clip-path-6"><rect class="cls-2" x="-436.67" y="-457.92" width="596" height="1418"/></clipPath></defs><title>Gris_Economia_2_CuentasEconomicas</title><g class="cls-6"><g class="cls-7"><rect class="cls-2" x="-436.67" y="-457.92" width="596" height="1418"/></g><rect class="cls-2" x="-436.67" y="-457.92" width="596" height="1418"/><g class="cls-7"><rect class="cls-2" x="-436.67" y="-457.92" width="596" height="1418"/></g><rect class="cls-2" x="-436.67" y="-457.92" width="596" height="1418"/><g class="cls-7"><rect class="cls-2" x="-436.67" y="-457.92" width="596" height="1418"/></g><rect class="cls-2" x="-436.67" y="-457.92" width="596" height="1418"/><g class="cls-7"><rect class="cls-2" x="-436.67" y="-457.92" width="596" height="1418"/></g><rect class="cls-2" x="-436.67" y="-457.92" width="596" height="1418"/></g><path class="cls-2" d="M46.61-48A18.61,18.61,0,0,1,28-29.39,18.61,18.61,0,0,1,9.39-48,18.61,18.61,0,0,1,28-66.61,18.61,18.61,0,0,1,46.61-48Z"/><rect class="cls-8" width="56" height="56" rx="4.2"/><line class="cls-9" x1="17.63" y1="47.94" x2="40.65" y2="8.06"/><path class="cls-10" d="M22.19,7.42l-.69,3.25a3.94,3.94,0,0,0-2.9-1,3.89,3.89,0,0,0-3.1,1.38A4.49,4.49,0,0,0,14.55,13H21l-.37,1.82H14.32v.68c0,.29,0,.57,0,.86h6l-.37,1.82H14.58a4.57,4.57,0,0,0,.91,2,3.82,3.82,0,0,0,3,1.39,4.73,4.73,0,0,0,3.57-1.39v3.59a7.76,7.76,0,0,1-3.54.76,7.4,7.4,0,0,1-5.63-2.34,8,8,0,0,1-2-4H9.22l.38-1.82h1.15c0-.18,0-.38,0-.59s0-.68,0-.95H9.22L9.6,13H11a8,8,0,0,1,2-3.9,7.57,7.57,0,0,1,5.81-2.36A7.91,7.91,0,0,1,22.19,7.42Z"/><path class="cls-10" d="M46.8,32.52l-.68,3.25a3.94,3.94,0,0,0-2.91-1,3.88,3.88,0,0,0-3.09,1.38,4.56,4.56,0,0,0-1,1.93h6.46l-.38,1.82H38.93v.68c0,.28,0,.57,0,.86h6l-.37,1.81H39.2a4.46,4.46,0,0,0,.9,2,3.79,3.79,0,0,0,3,1.39,4.73,4.73,0,0,0,3.58-1.39v3.6a8,8,0,0,1-3.55.76,7.4,7.4,0,0,1-5.63-2.34,7.94,7.94,0,0,1-2-4H33.84l.37-1.81h1.16c0-.18,0-.38,0-.59,0-.37,0-.68,0-1H33.84l.37-1.82H35.6a8,8,0,0,1,2-3.9,7.56,7.56,0,0,1,5.81-2.36A7.73,7.73,0,0,1,46.8,32.52Z"/></svg>