<svg id="Capa_1" data-name="Capa 1" xmlns="http://www.w3.org/2000/svg" xmlns:xlink="http://www.w3.org/1999/xlink" viewBox="0 0 56 56"><defs><style>.cls-1,.cls-6{fill:none;stroke:#8c9ba3;}.cls-1{stroke-miterlimit:10;}.cls-2{clip-path:url(#clip-path);}.cls-3{clip-path:url(#clip-path-2);}.cls-4{fill:#8c9ba3;}.cls-5{fill:#fff;}.cls-6{stroke-linecap:round;stroke-width:1.84px;}</style><clipPath id="clip-path"><path class="cls-1" d="M426.61-124A18.61,18.61,0,0,1,408-105.39,18.61,18.61,0,0,1,389.39-124,18.61,18.61,0,0,1,408-142.61,18.61,18.61,0,0,1,426.61-124Z"/></clipPath><clipPath id="clip-path-2"><rect class="cls-1" x="-56.67" y="-533.92" width="596" height="1418"/></clipPath></defs><title>Gris_Economia_2_Precios_Consumo_Inversion</title><g class="cls-2"><g class="cls-3"><rect class="cls-1" x="-56.67" y="-533.92" width="596" height="1418"/></g><rect class="cls-1" x="-56.67" y="-533.92" width="596" height="1418"/><g class="cls-3"><rect class="cls-1" x="-56.67" y="-533.92" width="596" height="1418"/></g><rect class="cls-1" x="-56.67" y="-533.92" width="596" height="1418"/><g class="cls-3"><rect class="cls-1" x="-56.67" y="-533.92" width="596" height="1418"/></g><rect class="cls-1" x="-56.67" y="-533.92" width="596" height="1418"/><g class="cls-3"><rect class="cls-1" x="-56.67" y="-533.92" width="596" height="1418"/></g><rect class="cls-1" x="-56.67" y="-533.92" width="596" height="1418"/></g><path class="cls-1" d="M426.61-124A18.61,18.61,0,0,1,408-105.39,18.61,18.61,0,0,1,389.39-124,18.61,18.61,0,0,1,408-142.61,18.61,18.61,0,0,1,426.61-124Z"/><path class="cls-4" d="M56,4.2V51.8A4.19,4.19,0,0,1,51.8,56H4.2A4.19,4.19,0,0,1,0,51.8V4.2A4.2,4.2,0,0,1,4.2,0H51.8A4.19,4.19,0,0,1,56,4.2Z"/><path class="cls-5" d="M47.74,23.15a1.19,1.19,0,0,1,1,1.58c-.75.55-2.13-.44-1.49-1.39a.36.36,0,0,1,.34-.18ZM14.88,10.53c-3.23.78-2.48,6.87-2.26,8.56-1.68,1.18-1.91,3.75-3.16,4.88-1.17.34-1.18-1.54-2.52-1.06s-.76,1.87-.87,2.87c0,1.94,0,3.87,0,5.8,1.08,2.47,2.39,0,3-.2.92,2.51,3.35,5,6.87,8.16.05,1.92.15,4.13,1.24,5.8a40,40,0,0,0,4.25.09c1.47.4,2-2.26,2.09-3.34,1.77.15,6.44.56,9.59-.47.2,1.26.35,3.93,2.25,3.81h4.24c1.26-1.06,1-3.09,1.09-4.62,0-1,0-1.92,0-2.88a12.13,12.13,0,0,0,5.2-9.3,8.59,8.59,0,0,0,3-1.79,3.37,3.37,0,0,1,1.71-1.24,4.83,4.83,0,0,0,2.3-3.38.64.64,0,0,0-.65-.59c-.58,0-.66.64-.8,1.05-.24.6-.84,1.53-1.31,1.6a2.4,2.4,0,0,0-2-2.38,1.83,1.83,0,0,0-2.22,1.5,2.33,2.33,0,0,0,1.86,2.68,6.57,6.57,0,0,1-1.83,1.15,12.28,12.28,0,0,0-5.46-10,21.78,21.78,0,0,0-20.2-3.12C19.05,12.34,17.19,10.56,14.88,10.53Z"/><path class="cls-6" d="M24.18,16.1c3.89-1.3,8.59.1,8.59.1"/></svg>