<svg id="Capa_1" data-name="Capa 1" xmlns="http://www.w3.org/2000/svg" xmlns:xlink="http://www.w3.org/1999/xlink" viewBox="0 0 56 56"><defs><style>.cls-1{fill:none;stroke:#8c9ba3;stroke-miterlimit:10;}.cls-2{clip-path:url(#clip-path);}.cls-3{clip-path:url(#clip-path-2);}.cls-4{fill:#8c9ba3;}.cls-5{fill:#fff;}</style><clipPath id="clip-path"><path class="cls-1" d="M350.61-124A18.61,18.61,0,0,1,332-105.39,18.61,18.61,0,0,1,313.39-124,18.61,18.61,0,0,1,332-142.61,18.61,18.61,0,0,1,350.61-124Z"/></clipPath><clipPath id="clip-path-2"><rect class="cls-1" x="-132.67" y="-533.92" width="596" height="1418"/></clipPath></defs><title>Gris_Economia_2_Empresas_CentroTrabajo</title><g class="cls-2"><g class="cls-3"><rect class="cls-1" x="-132.67" y="-533.92" width="596" height="1418"/></g><rect class="cls-1" x="-132.67" y="-533.92" width="596" height="1418"/><g class="cls-3"><rect class="cls-1" x="-132.67" y="-533.92" width="596" height="1418"/></g><rect class="cls-1" x="-132.67" y="-533.92" width="596" height="1418"/><g class="cls-3"><rect class="cls-1" x="-132.67" y="-533.92" width="596" height="1418"/></g><rect class="cls-1" x="-132.67" y="-533.92" width="596" height="1418"/><g class="cls-3"><rect class="cls-1" x="-132.67" y="-533.92" width="596" height="1418"/></g><rect class="cls-1" x="-132.67" y="-533.92" width="596" height="1418"/></g><path class="cls-1" d="M350.61-124A18.61,18.61,0,0,1,332-105.39,18.61,18.61,0,0,1,313.39-124,18.61,18.61,0,0,1,332-142.61,18.61,18.61,0,0,1,350.61-124Z"/><path class="cls-4" d="M56,4.2V51.8A4.19,4.19,0,0,1,51.8,56H4.2A4.19,4.19,0,0,1,0,51.8V4.2A4.19,4.19,0,0,1,4.2,0H51.8A4.19,4.19,0,0,1,56,4.2Z"/><polygon class="cls-5" points="6.78 11.15 27.79 16 27.79 44.28 6.78 44.28 6.78 11.15"/><rect class="cls-4" x="9.28" y="17.57" width="2.89" height="2.76"/><rect class="cls-4" x="13.65" y="17.57" width="2.89" height="2.76"/><rect class="cls-4" x="18.02" y="17.57" width="2.89" height="2.76"/><rect class="cls-4" x="22.38" y="17.57" width="2.89" height="2.76"/><rect class="cls-4" x="9.28" y="21.52" width="2.89" height="2.76"/><rect class="cls-4" x="9.28" y="25.46" width="2.89" height="2.76"/><rect class="cls-4" x="9.28" y="29.4" width="2.89" height="2.76"/><rect class="cls-4" x="9.28" y="33.34" width="2.89" height="2.76"/><rect class="cls-4" x="13.65" y="21.52" width="2.89" height="2.76"/><rect class="cls-4" x="18.02" y="21.52" width="2.89" height="2.76"/><rect class="cls-4" x="22.38" y="21.52" width="2.89" height="2.76"/><rect class="cls-4" x="13.65" y="25.46" width="2.89" height="2.76"/><rect class="cls-4" x="18.02" y="25.46" width="2.89" height="2.76"/><rect class="cls-4" x="22.38" y="25.46" width="2.89" height="2.76"/><rect class="cls-4" x="13.65" y="29.4" width="2.89" height="2.76"/><rect class="cls-4" x="18.02" y="29.4" width="2.89" height="2.76"/><rect class="cls-4" x="22.38" y="29.4" width="2.89" height="2.76"/><rect class="cls-4" x="13.65" y="33.34" width="2.89" height="2.76"/><rect class="cls-4" x="18.02" y="33.34" width="2.89" height="2.76"/><rect class="cls-4" x="22.38" y="33.34" width="2.89" height="2.76"/><rect class="cls-4" x="15.03" y="39.02" width="4.5" height="5.83"/><polygon class="cls-5" points="29.91 21.66 49.22 26.51 49.22 44.29 29.91 44.29 29.91 21.66"/><rect class="cls-4" x="31.71" y="25.47" width="2.89" height="2.76"/><rect class="cls-4" x="31.71" y="29.41" width="2.89" height="2.76"/><rect class="cls-4" x="31.71" y="33.35" width="2.89" height="2.76"/><rect class="cls-4" x="36.08" y="25.47" width="2.89" height="2.76"/><rect class="cls-4" x="36.08" y="29.41" width="2.89" height="2.76"/><rect class="cls-4" x="40.45" y="29.41" width="2.89" height="2.76"/><rect class="cls-4" x="44.82" y="29.41" width="2.89" height="2.76"/><rect class="cls-4" x="36.08" y="33.35" width="2.89" height="2.76"/><rect class="cls-4" x="40.45" y="33.35" width="2.89" height="2.76"/><rect class="cls-4" x="44.82" y="33.35" width="2.89" height="2.76"/><rect class="cls-4" x="37.46" y="39.03" width="4.5" height="5.67"/></svg>