<svg id="Capa_1" data-name="Capa 1" xmlns="http://www.w3.org/2000/svg" xmlns:xlink="http://www.w3.org/1999/xlink" viewBox="0 0 56 56"><defs><style>.cls-1,.cls-2{fill:none;}.cls-2{stroke:#8c9ba3;stroke-miterlimit:10;}.cls-3{fill:#8c9ba3;}.cls-4,.cls-5{fill:#fff;}.cls-5{fill-rule:evenodd;}.cls-6{clip-path:url(#clip-path);}.cls-7{clip-path:url(#clip-path-2);}.cls-8{clip-path:url(#clip-path-3);}.cls-9{clip-path:url(#clip-path-5);}.cls-10{clip-path:url(#clip-path-6);}</style><clipPath id="clip-path"><rect class="cls-1" x="-69.61" y="-68.9" width="19.12" height="42.53"/></clipPath><clipPath id="clip-path-2"><rect class="cls-1" x="-196.04" y="-678.94" width="596" height="1418"/></clipPath><clipPath id="clip-path-3"><rect class="cls-1" x="-45.51" y="-68.9" width="19.12" height="42.53"/></clipPath><clipPath id="clip-path-5"><path class="cls-2" d="M46.61-124A18.61,18.61,0,0,1,28-105.39,18.61,18.61,0,0,1,9.39-124,18.61,18.61,0,0,1,28-142.61,18.61,18.61,0,0,1,46.61-124Z"/></clipPath><clipPath id="clip-path-6"><rect class="cls-2" x="-436.67" y="-533.92" width="596" height="1418"/></clipPath></defs><title>Gris_SectorPrimario_2_Agri_Gan_Pes_Caza</title><rect class="cls-3" width="56" height="56" rx="4.2"/><path class="cls-4" d="M12.3,10.23a10.51,10.51,0,0,0-.7,2.62A1.83,1.83,0,0,0,12,14.09a4.27,4.27,0,0,0-4.35,4,1.68,1.68,0,0,1-1.58,1.44,3.15,3.15,0,0,0-2.94,3.34,2.94,2.94,0,0,0,2.94,3c10,0,7.69,3.69,13.25,8.61,3.75,3.32,2.58,10.25,2.58,10.25a1.15,1.15,0,0,0,1.17,1.14l1.9,0a1.16,1.16,0,0,0,1.13-1.17l-.14-7.68A84,84,0,0,1,35.6,37a3.56,3.56,0,0,0,1.1,1.12v.53a.5.5,0,0,0,.5.5.5.5,0,0,0,.5-.5v0a5.19,5.19,0,0,0,.78.18V39a.5.5,0,0,0,1,0v-.15a4.2,4.2,0,0,0,.79-.13.5.5,0,0,0,1,0v-.34a3.48,3.48,0,0,0,.51-.34A4,4,0,0,0,43,40.16c-.37,2.3-.76,3.54-.91,4.41s0,1.14.4,1.14l2.66,0c.58,0,.58-.58.73-1.14.36-1.36.77-4.37.85-5,0-1.13.49-1.24.48-4.13,1.33-2.33,3.12-4.13,3.12-9.56a9.69,9.69,0,0,0-9.71-9.7c-8.17,0-20.48,1-22.6-1.79.46-1.82-1.57-2.72-3.34-.49a4.39,4.39,0,0,1-1.57-1.29A7.11,7.11,0,0,1,12.3,10.23Z"/><path class="cls-5" d="M50.71,24.81a8.76,8.76,0,0,1,.1,1.61h0a16,16,0,0,1,.48,5c0,1.32-.07,3.13,0,4.38a2.51,2.51,0,0,0-.91,2.2,4.27,4.27,0,0,0,1.25,2.85c1-1.3,1.25-1.59,1.25-2.85a2.68,2.68,0,0,0-.79-2.13c.15-1.17.23-2.89.27-4.43C52.44,28.87,52.88,26.18,50.71,24.81Z"/><g class="cls-9"><g class="cls-10"><rect class="cls-2" x="-436.67" y="-533.92" width="596" height="1418"/></g><rect class="cls-2" x="-436.67" y="-533.92" width="596" height="1418"/><g class="cls-10"><rect class="cls-2" x="-436.67" y="-533.92" width="596" height="1418"/></g><rect class="cls-2" x="-436.67" y="-533.92" width="596" height="1418"/><g class="cls-10"><rect class="cls-2" x="-436.67" y="-533.92" width="596" height="1418"/></g><rect class="cls-2" x="-436.67" y="-533.92" width="596" height="1418"/><g class="cls-10"><rect class="cls-2" x="-436.67" y="-533.92" width="596" height="1418"/></g><rect class="cls-2" x="-436.67" y="-533.92" width="596" height="1418"/></g><path class="cls-2" d="M46.61-124A18.61,18.61,0,0,1,28-105.39,18.61,18.61,0,0,1,9.39-124,18.61,18.61,0,0,1,28-142.61,18.61,18.61,0,0,1,46.61-124Z"/></svg>