<svg id="Capa_1" data-name="Capa 1" xmlns="http://www.w3.org/2000/svg" xmlns:xlink="http://www.w3.org/1999/xlink" viewBox="0 0 56 56"><defs><style>.cls-1,.cls-7{fill:none;stroke:#8c9ba3;}.cls-1{stroke-miterlimit:10;}.cls-2{clip-path:url(#clip-path);}.cls-3{clip-path:url(#clip-path-2);}.cls-4{fill:#8c9ba3;}.cls-5,.cls-6{fill:#fff;}.cls-6{fill-rule:evenodd;}.cls-7{stroke-linecap:round;stroke-linejoin:round;stroke-width:0.8px;}</style><clipPath id="clip-path"><path class="cls-1" d="M426.61-48A18.61,18.61,0,0,1,408-29.39,18.61,18.61,0,0,1,389.39-48,18.61,18.61,0,0,1,408-66.61,18.61,18.61,0,0,1,426.61-48Z"/></clipPath><clipPath id="clip-path-2"><rect class="cls-1" x="-56.67" y="-457.92" width="596" height="1418"/></clipPath></defs><title>Gris_Sociedad_2_Elecciones</title><g class="cls-2"><g class="cls-3"><rect class="cls-1" x="-56.67" y="-457.92" width="596" height="1418"/></g><rect class="cls-1" x="-56.67" y="-457.92" width="596" height="1418"/><g class="cls-3"><rect class="cls-1" x="-56.67" y="-457.92" width="596" height="1418"/></g><rect class="cls-1" x="-56.67" y="-457.92" width="596" height="1418"/><g class="cls-3"><rect class="cls-1" x="-56.67" y="-457.92" width="596" height="1418"/></g><rect class="cls-1" x="-56.67" y="-457.92" width="596" height="1418"/><g class="cls-3"><rect class="cls-1" x="-56.67" y="-457.92" width="596" height="1418"/></g><rect class="cls-1" x="-56.67" y="-457.92" width="596" height="1418"/></g><path class="cls-1" d="M426.61-48A18.61,18.61,0,0,1,408-29.39,18.61,18.61,0,0,1,389.39-48,18.61,18.61,0,0,1,408-66.61,18.61,18.61,0,0,1,426.61-48Z"/><rect class="cls-4" width="56" height="56" rx="4.2"/><polygon class="cls-5" points="10.54 24.79 40.25 24.79 41.77 34.92 9.02 34.92 10.54 24.79"/><rect class="cls-5" x="37.58" y="3.03" width="7.5" height="8" rx="0.4"/><polygon class="cls-4" points="14.2 28.22 36.51 28.22 37.66 31.04 13.06 31.04 14.2 28.22"/><path class="cls-5" d="M26.78,15.47l-.15.17A17.28,17.28,0,0,0,24.79,18a3.51,3.51,0,0,0-.4.91.7.7,0,0,0,0,.36h0a2.82,2.82,0,0,0,.71-.2,17.44,17.44,0,0,0,2.55-1.45L29,16.68ZM21.59,12.7a.39.39,0,0,0-.31.21l-7.14,13a.39.39,0,0,0,.15.54l7.2,4.14h6.57L34,19.89a.4.4,0,0,0-.15-.54l-3.68-2c-.63.45-1.25.89-1.85,1.28a17,17,0,0,1-2.76,1.56,3.1,3.1,0,0,1-1.13.29,1.2,1.2,0,0,1-1.07-.52,1.85,1.85,0,0,1-.17-1.32,4.53,4.53,0,0,1,.55-1.27,17.9,17.9,0,0,1,1.93-2.48l-3.86-2.12A.46.46,0,0,0,21.59,12.7Z"/><path class="cls-6" d="M22.26,12.21c.62-2.61,1.63-3.91,8.38-7.3,3.2,0,4.2.1,5.75.1,0,2,0,3.19,0,5.19-.27,1-1.46,1.18-1.68,1.55s-.18,1.61-.76,2c-3.29,2.4-9.28,7.16-10.08,5.84-1.18-2,5.7-7.21,4.72-7.63-1.63-.72-2.86-.16-3.59,1.58Z"/><rect class="cls-5" x="9.1" y="36.14" width="32.52" height="9.29"/><polyline class="cls-7" points="17.95 17.89 13.63 26.17 17.59 28.79"/></svg>