<svg id="Capa_1" data-name="Capa 1" xmlns="http://www.w3.org/2000/svg" xmlns:xlink="http://www.w3.org/1999/xlink" viewBox="0 0 56 56"><defs><style>.cls-1,.cls-2{fill:none;}.cls-2{stroke:#8c9ba3;stroke-miterlimit:10;}.cls-3{clip-path:url(#clip-path);}.cls-4{clip-path:url(#clip-path-2);}.cls-5{clip-path:url(#clip-path-3);}.cls-6{fill:#8c9ba3;}.cls-7{fill:#fff;}.cls-8{clip-path:url(#clip-path-5);}.cls-9{clip-path:url(#clip-path-6);}</style><clipPath id="clip-path"><rect class="cls-1" x="82.39" y="83.1" width="19.12" height="42.53"/></clipPath><clipPath id="clip-path-2"><rect class="cls-1" x="-44.04" y="-526.94" width="596" height="1418"/></clipPath><clipPath id="clip-path-3"><rect class="cls-1" x="106.49" y="83.1" width="19.12" height="42.53"/></clipPath><clipPath id="clip-path-5"><path class="cls-2" d="M198.61,28A18.61,18.61,0,1,1,180,9.39,18.61,18.61,0,0,1,198.61,28Z"/></clipPath><clipPath id="clip-path-6"><rect class="cls-2" x="-284.67" y="-381.92" width="596" height="1418"/></clipPath></defs><title>Gris_Sociedad_2_Salud</title><path class="cls-6" d="M56,4.2V51.8A4.19,4.19,0,0,1,51.8,56H4.2A4.19,4.19,0,0,1,0,51.8V4.2A4.2,4.2,0,0,1,4.2,0H51.8A4.19,4.19,0,0,1,56,4.2Z"/><rect class="cls-7" x="23.2" y="11.2" width="9.6" height="33.6"/><rect class="cls-7" x="11.2" y="23.2" width="33.6" height="9.6"/><g class="cls-8"><g class="cls-9"><rect class="cls-2" x="-284.67" y="-381.92" width="596" height="1418"/></g><rect class="cls-2" x="-284.67" y="-381.92" width="596" height="1418"/><g class="cls-9"><rect class="cls-2" x="-284.67" y="-381.92" width="596" height="1418"/></g><rect class="cls-2" x="-284.67" y="-381.92" width="596" height="1418"/><g class="cls-9"><rect class="cls-2" x="-284.67" y="-381.92" width="596" height="1418"/></g><rect class="cls-2" x="-284.67" y="-381.92" width="596" height="1418"/><g class="cls-9"><rect class="cls-2" x="-284.67" y="-381.92" width="596" height="1418"/></g><rect class="cls-2" x="-284.67" y="-381.92" width="596" height="1418"/></g><path class="cls-2" d="M198.61,28A18.61,18.61,0,1,1,180,9.39,18.61,18.61,0,0,1,198.61,28Z"/></svg>