<svg id="Capa_1" data-name="Capa 1" xmlns="http://www.w3.org/2000/svg" xmlns:xlink="http://www.w3.org/1999/xlink" viewBox="0 0 56 56"><defs><style>.cls-1,.cls-2{fill:none;}.cls-2{stroke:#8c9ba3;stroke-miterlimit:10;}.cls-3{clip-path:url(#clip-path);}.cls-4{clip-path:url(#clip-path-2);}.cls-5{clip-path:url(#clip-path-3);}.cls-6{fill:#8c9ba3;}.cls-7{fill:#fff;}.cls-8{clip-path:url(#clip-path-5);}.cls-9{clip-path:url(#clip-path-6);}</style><clipPath id="clip-path"><rect class="cls-1" x="158.39" y="83.1" width="19.12" height="42.53"/></clipPath><clipPath id="clip-path-2"><rect class="cls-1" x="31.96" y="-526.94" width="596" height="1418"/></clipPath><clipPath id="clip-path-3"><rect class="cls-1" x="182.49" y="83.1" width="19.12" height="42.53"/></clipPath><clipPath id="clip-path-5"><path class="cls-2" d="M274.61,28A18.61,18.61,0,1,1,256,9.39,18.61,18.61,0,0,1,274.61,28Z"/></clipPath><clipPath id="clip-path-6"><rect class="cls-2" x="-208.67" y="-381.92" width="596" height="1418"/></clipPath></defs><title>Gris_Sociedad_2_CalidadVida</title><rect class="cls-6" width="56" height="56" rx="4.2"/><path class="cls-7" d="M13,22.12c2.32,0,4.2.65,4.2,1.47V42.17c0,.81-1.88,1.47-4.2,1.47S8.8,43,8.8,42.17V23.59C8.8,22.77,10.67,22.12,13,22.12Z"/><path class="cls-7" d="M18.54,38.49V24.1s3.33-1.12,6.39-5.86,2.24-9.17,5.21-9.08,3.61,1.72,3.7,3.11.38,6.55-1.66,10c2.69,2.23,13.42-3.37,14.76,1.39.94,3.37-.75,3.54-3.39,9.28-1.39,3.85-3.34,8.56-4.78,9.1-6.79,1.7-10.13.54-14.48-.93C20.63,41.25,20.08,40.33,18.54,38.49Z"/><g class="cls-8"><g class="cls-9"><rect class="cls-2" x="-208.67" y="-381.92" width="596" height="1418"/></g><rect class="cls-2" x="-208.67" y="-381.92" width="596" height="1418"/><g class="cls-9"><rect class="cls-2" x="-208.67" y="-381.92" width="596" height="1418"/></g><rect class="cls-2" x="-208.67" y="-381.92" width="596" height="1418"/><g class="cls-9"><rect class="cls-2" x="-208.67" y="-381.92" width="596" height="1418"/></g><rect class="cls-2" x="-208.67" y="-381.92" width="596" height="1418"/><g class="cls-9"><rect class="cls-2" x="-208.67" y="-381.92" width="596" height="1418"/></g><rect class="cls-2" x="-208.67" y="-381.92" width="596" height="1418"/></g><path class="cls-2" d="M274.61,28A18.61,18.61,0,1,1,256,9.39,18.61,18.61,0,0,1,274.61,28Z"/></svg>