<svg id="Capa_1" data-name="Capa 1" xmlns="http://www.w3.org/2000/svg" xmlns:xlink="http://www.w3.org/1999/xlink" viewBox="0 0 56 56"><defs><style>.cls-1,.cls-6,.cls-7{fill:none;}.cls-1{stroke:#8c9ba3;stroke-miterlimit:10;}.cls-2{clip-path:url(#clip-path);}.cls-3{clip-path:url(#clip-path-2);}.cls-4{fill:#8c9ba3;}.cls-5{fill:#fff;}.cls-6,.cls-7{stroke:#fff;}.cls-6{stroke-linecap:round;stroke-linejoin:round;stroke-width:1.68px;}.cls-7{stroke-width:2.48px;}</style><clipPath id="clip-path"><path class="cls-1" d="M350.61-48A18.61,18.61,0,0,1,332-29.39,18.61,18.61,0,0,1,313.39-48,18.61,18.61,0,0,1,332-66.61,18.61,18.61,0,0,1,350.61-48Z"/></clipPath><clipPath id="clip-path-2"><rect class="cls-1" x="-132.67" y="-457.92" width="596" height="1418"/></clipPath></defs><title>Gris_Sociedad_2_Justicia_Seguridad</title><g class="cls-2"><g class="cls-3"><rect class="cls-1" x="-132.67" y="-457.92" width="596" height="1418"/></g><rect class="cls-1" x="-132.67" y="-457.92" width="596" height="1418"/><g class="cls-3"><rect class="cls-1" x="-132.67" y="-457.92" width="596" height="1418"/></g><rect class="cls-1" x="-132.67" y="-457.92" width="596" height="1418"/><g class="cls-3"><rect class="cls-1" x="-132.67" y="-457.92" width="596" height="1418"/></g><rect class="cls-1" x="-132.67" y="-457.92" width="596" height="1418"/><g class="cls-3"><rect class="cls-1" x="-132.67" y="-457.92" width="596" height="1418"/></g><rect class="cls-1" x="-132.67" y="-457.92" width="596" height="1418"/></g><path class="cls-1" d="M350.61-48A18.61,18.61,0,0,1,332-29.39,18.61,18.61,0,0,1,313.39-48,18.61,18.61,0,0,1,332-66.61,18.61,18.61,0,0,1,350.61-48Z"/><path class="cls-4" d="M56,4.2V51.8A4.19,4.19,0,0,1,51.8,56H4.2A4.19,4.19,0,0,1,0,51.8V4.2A4.2,4.2,0,0,1,4.2,0H51.8A4.19,4.19,0,0,1,56,4.2Z"/><path class="cls-5" d="M28,7.11l-1.61,5.7a2.81,2.81,0,1,0,3.22,0Z"/><path class="cls-5" d="M23.26,32.79c0,2.16-1.52,4.16-4,5.24a10.31,10.31,0,0,1-8,0c-2.49-1.08-4-3.08-4-5.24Z"/><polygon class="cls-6" points="15.25 18.29 21.03 34.62 9.48 34.62 15.25 18.29"/><path class="cls-5" d="M31.88,19.13a3.35,3.35,0,0,1-1.94,2.94,4.39,4.39,0,0,1-3.87,0,3.35,3.35,0,0,1-1.94-2.94Z"/><path class="cls-5" d="M33.93,46.51a4.74,4.74,0,0,0-3-4.17,7.11,7.11,0,0,0-5.92,0,4.74,4.74,0,0,0-3,4.17Z"/><rect class="cls-5" x="26.55" y="21.18" width="2.9" height="22.47"/><path class="cls-5" d="M19.88,45.73a1.58,1.58,0,0,0-1.59,1.58,1.15,1.15,0,0,0,0,.26h0v1.32H37.71V47.57h0a2.3,2.3,0,0,0,0-.26,1.58,1.58,0,0,0-1.58-1.58Z"/><path class="cls-5" d="M17.17,15A1.93,1.93,0,1,1,15.24,13,1.94,1.94,0,0,1,17.17,15Z"/><path class="cls-7" d="M15.39,15.68c9.42-6.84,11.72,0,11.72,0"/><path class="cls-7" d="M40.6,15.68c-9.41-6.84-11.71,0-11.71,0"/><path class="cls-5" d="M42.69,15A1.93,1.93,0,1,1,40.76,13,1.93,1.93,0,0,1,42.69,15Z"/><path class="cls-5" d="M48.76,32.79c0,2.16-1.52,4.16-4,5.24a10.31,10.31,0,0,1-8,0c-2.49-1.08-4-3.08-4-5.24Z"/><polygon class="cls-6" points="40.75 18.29 46.53 34.62 34.98 34.62 40.75 18.29"/><path class="cls-4" d="M31.05,18a2.28,2.28,0,0,1-1.52,2,3.85,3.85,0,0,1-3.05,0A2.29,2.29,0,0,1,25,18Z"/></svg>