<svg id="Capa_1" data-name="Capa 1" xmlns="http://www.w3.org/2000/svg" xmlns:xlink="http://www.w3.org/1999/xlink" viewBox="0 0 56 56"><defs><style>.cls-1{fill:none;stroke:#8c9ba3;stroke-miterlimit:10;}.cls-2{clip-path:url(#clip-path);}.cls-3{clip-path:url(#clip-path-2);}.cls-4{fill:#8c9ba3;}.cls-5{fill:#fff;}</style><clipPath id="clip-path"><path class="cls-1" d="M426.61-276A18.61,18.61,0,0,1,408-257.39,18.61,18.61,0,0,1,389.39-276,18.61,18.61,0,0,1,408-294.61,18.61,18.61,0,0,1,426.61-276Z"/></clipPath><clipPath id="clip-path-2"><rect class="cls-1" x="-56.67" y="-685.92" width="596" height="1418"/></clipPath></defs><title>Gris_SectorServicios_2_Hosteleria_Turismo_2</title><g class="cls-2"><g class="cls-3"><rect class="cls-1" x="-56.67" y="-685.92" width="596" height="1418"/></g><rect class="cls-1" x="-56.67" y="-685.92" width="596" height="1418"/><g class="cls-3"><rect class="cls-1" x="-56.67" y="-685.92" width="596" height="1418"/></g><rect class="cls-1" x="-56.67" y="-685.92" width="596" height="1418"/><g class="cls-3"><rect class="cls-1" x="-56.67" y="-685.92" width="596" height="1418"/></g><rect class="cls-1" x="-56.67" y="-685.92" width="596" height="1418"/><g class="cls-3"><rect class="cls-1" x="-56.67" y="-685.92" width="596" height="1418"/></g><rect class="cls-1" x="-56.67" y="-685.92" width="596" height="1418"/></g><path class="cls-1" d="M426.61-276A18.61,18.61,0,0,1,408-257.39,18.61,18.61,0,0,1,389.39-276,18.61,18.61,0,0,1,408-294.61,18.61,18.61,0,0,1,426.61-276Z"/><rect class="cls-4" width="56" height="56" rx="4.2"/><path class="cls-5" d="M17.37,14.3a1.91,1.91,0,0,0-1.85,2v5.64h-3c-1.49,0-2.7.7-2.7,1.56V49.52c0,.87,1.21,1.56,2.7,1.56h4.67l.21,0H38.63l.21,0h4.67c1.5,0,2.7-.69,2.7-1.56V23.47c0-.86-1.2-1.56-2.7-1.56h-3V16.27a1.91,1.91,0,0,0-1.86-2Z"/><rect class="cls-4" x="19.41" y="25.62" width="3.89" height="3.8"/><rect class="cls-4" x="26.06" y="25.62" width="3.89" height="3.8"/><rect class="cls-4" x="32.7" y="25.62" width="3.89" height="3.8"/><rect class="cls-4" x="39.35" y="25.62" width="3.89" height="3.8"/><rect class="cls-4" x="12.77" y="25.62" width="3.89" height="3.8"/><rect class="cls-4" x="19.41" y="32.07" width="3.89" height="3.8"/><rect class="cls-4" x="26.06" y="32.07" width="3.89" height="3.8"/><rect class="cls-4" x="32.7" y="32.07" width="3.89" height="3.8"/><rect class="cls-4" x="39.35" y="32.07" width="3.89" height="3.8"/><rect class="cls-4" x="12.77" y="32.07" width="3.89" height="3.8"/><rect class="cls-4" x="19.41" y="38.87" width="3.89" height="3.8"/><rect class="cls-4" x="26.06" y="38.87" width="3.89" height="3.8"/><rect class="cls-4" x="32.7" y="38.87" width="3.89" height="3.8"/><rect class="cls-4" x="39.35" y="38.87" width="3.89" height="3.8"/><rect class="cls-4" x="12.77" y="38.87" width="3.89" height="3.8"/><rect class="cls-4" x="19.41" y="18.82" width="3.89" height="3.8"/><rect class="cls-4" x="26.06" y="18.82" width="3.89" height="3.8"/><rect class="cls-4" x="32.7" y="18.82" width="3.89" height="3.8"/><rect class="cls-4" x="24.11" y="44.3" width="7.77" height="6.8"/><path class="cls-5" d="M18.57,10.53c-.1,0-2,1-2.11.9s.2-2.19.17-2.29-1.53-1.63-1.5-1.73,2.14-.48,2.22-.55,1.08-1.95,1.18-1.95,1.13,1.88,1.21,1.94,2.2.42,2.23.52S20.53,9,20.5,9.12s.27,2.22.19,2.28S18.67,10.53,18.57,10.53Z"/><path class="cls-5" d="M28,11.07c-.1,0-2,.95-2.11.89s.2-2.19.17-2.29S24.55,8,24.58,7.94s2.14-.48,2.22-.55S27.88,5.44,28,5.44s1.12,1.88,1.2,1.94,2.2.42,2.23.52S30,9.55,30,9.65s.27,2.22.19,2.28S28.13,11.07,28,11.07Z"/><path class="cls-5" d="M37.47,10.71c-.1,0-2,.95-2.1.89s.19-2.18.16-2.28S34,7.69,34,7.59,36.17,7.1,36.25,7s1.08-2,1.19-2S38.56,7,38.64,7s2.2.42,2.23.52S39.43,9.19,39.4,9.29s.28,2.22.19,2.28S37.57,10.71,37.47,10.71Z"/></svg>