<svg id="Capa_1" data-name="Capa 1" xmlns="http://www.w3.org/2000/svg" xmlns:xlink="http://www.w3.org/1999/xlink" viewBox="0 0 56 56"><defs><style>.cls-1{fill:none;stroke:#8c9ba3;stroke-miterlimit:10;}.cls-2{clip-path:url(#clip-path);}.cls-3{clip-path:url(#clip-path-2);}.cls-4{fill:#8c9ba3;}.cls-5{fill:#fff;}</style><clipPath id="clip-path"><path class="cls-1" d="M350.61-276A18.61,18.61,0,0,1,332-257.39,18.61,18.61,0,0,1,313.39-276,18.61,18.61,0,0,1,332-294.61,18.61,18.61,0,0,1,350.61-276Z"/></clipPath><clipPath id="clip-path-2"><rect class="cls-1" x="-132.67" y="-685.92" width="596" height="1418"/></clipPath></defs><title>Gris_SectorServicios_2_Transporte_Comunicaciones</title><g class="cls-2"><g class="cls-3"><rect class="cls-1" x="-132.67" y="-685.92" width="596" height="1418"/></g><rect class="cls-1" x="-132.67" y="-685.92" width="596" height="1418"/><g class="cls-3"><rect class="cls-1" x="-132.67" y="-685.92" width="596" height="1418"/></g><rect class="cls-1" x="-132.67" y="-685.92" width="596" height="1418"/><g class="cls-3"><rect class="cls-1" x="-132.67" y="-685.92" width="596" height="1418"/></g><rect class="cls-1" x="-132.67" y="-685.92" width="596" height="1418"/><g class="cls-3"><rect class="cls-1" x="-132.67" y="-685.92" width="596" height="1418"/></g><rect class="cls-1" x="-132.67" y="-685.92" width="596" height="1418"/></g><path class="cls-1" d="M350.61-276A18.61,18.61,0,0,1,332-257.39,18.61,18.61,0,0,1,313.39-276,18.61,18.61,0,0,1,332-294.61,18.61,18.61,0,0,1,350.61-276Z"/><path class="cls-4" d="M56,4.2V51.8A4.19,4.19,0,0,1,51.8,56H4.2A4.19,4.19,0,0,1,0,51.8V4.2A4.19,4.19,0,0,1,4.2,0H51.8A4.19,4.19,0,0,1,56,4.2Z"/><path class="cls-5" d="M40.89,16.39H15.1V31.87H40.89Zm0,20.64a2.58,2.58,0,1,0-2.57,2.58A2.57,2.57,0,0,0,40.89,37ZM20.26,37a2.58,2.58,0,1,0-2.58,2.58A2.57,2.57,0,0,0,20.26,37Zm2.58-23.21H33.16V11.24H22.84Zm20.63,2.57V39.61a2.58,2.58,0,0,1-2.58,2.58v2.58a2.58,2.58,0,0,1-2.57,2.58H35.73a2.58,2.58,0,0,1-2.57-2.58V42.19H22.84v2.58a2.58,2.58,0,0,1-2.58,2.58H17.68a2.59,2.59,0,0,1-2.58-2.58V42.19a2.59,2.59,0,0,1-2.58-2.58V16.39a7.74,7.74,0,0,1,7.74-7.73H35.73A7.73,7.73,0,0,1,43.47,16.39ZM47.34,19H46.05v7.74h1.29a1.29,1.29,0,0,0,1.29-1.29V20.26A1.29,1.29,0,0,0,47.34,19ZM8.65,19H10v7.74H8.65a1.29,1.29,0,0,1-1.29-1.29V20.26A1.29,1.29,0,0,1,8.65,19Z"/></svg>