<svg id="Capa_1" data-name="Capa 1" xmlns="http://www.w3.org/2000/svg" xmlns:xlink="http://www.w3.org/1999/xlink" viewBox="0 0 56 56"><defs><style>.cls-1,.cls-2{fill:none;}.cls-2{stroke:#8c9ba3;stroke-miterlimit:10;}.cls-3{fill:#8c9ba3;}.cls-4{fill:#fff;}.cls-5{clip-path:url(#clip-path);}.cls-6{clip-path:url(#clip-path-2);}.cls-7{clip-path:url(#clip-path-3);}.cls-8{clip-path:url(#clip-path-5);}.cls-9{clip-path:url(#clip-path-6);}</style><clipPath id="clip-path"><rect class="cls-1" x="158.39" y="-144.9" width="19.12" height="42.53"/></clipPath><clipPath id="clip-path-2"><rect class="cls-1" x="31.96" y="-754.94" width="596" height="1418"/></clipPath><clipPath id="clip-path-3"><rect class="cls-1" x="182.49" y="-144.9" width="19.12" height="42.53"/></clipPath><clipPath id="clip-path-5"><path class="cls-2" d="M274.61-200A18.61,18.61,0,0,1,256-181.39,18.61,18.61,0,0,1,237.39-200,18.61,18.61,0,0,1,256-218.61,18.61,18.61,0,0,1,274.61-200Z"/></clipPath><clipPath id="clip-path-6"><rect class="cls-2" x="-208.67" y="-609.92" width="596" height="1418"/></clipPath></defs><title>Gris_SectorSecundario_2_Construccion_Vivienda</title><rect class="cls-3" width="56" height="56" rx="4.2"/><path class="cls-4" d="M46.63,9.37C50.27,13,37.1,36.18,37.1,36.18L19.82,18.9S43,5.73,46.63,9.37Z"/><rect class="cls-4" x="22.31" y="28.86" width="6.73" height="2.93" transform="translate(-13.92 27.04) rotate(-45)"/><path class="cls-4" d="M21.65,34.35c1.3,1.29,0,1.28.31,4.36l-7.8,7.8A3.1,3.1,0,0,1,9.8,46.2a3.09,3.09,0,0,1-.3-4.36L17.29,34C20.16,34.22,20.36,33.06,21.65,34.35Z"/><rect class="cls-4" x="21.57" y="31.73" width="1.67" height="3.74" transform="translate(-17.19 25.67) rotate(-44.99)"/><g class="cls-8"><g class="cls-9"><rect class="cls-2" x="-208.67" y="-609.92" width="596" height="1418"/></g><rect class="cls-2" x="-208.67" y="-609.92" width="596" height="1418"/><g class="cls-9"><rect class="cls-2" x="-208.67" y="-609.92" width="596" height="1418"/></g><rect class="cls-2" x="-208.67" y="-609.92" width="596" height="1418"/><g class="cls-9"><rect class="cls-2" x="-208.67" y="-609.92" width="596" height="1418"/></g><rect class="cls-2" x="-208.67" y="-609.92" width="596" height="1418"/><g class="cls-9"><rect class="cls-2" x="-208.67" y="-609.92" width="596" height="1418"/></g><rect class="cls-2" x="-208.67" y="-609.92" width="596" height="1418"/></g><path class="cls-2" d="M274.61-200A18.61,18.61,0,0,1,256-181.39,18.61,18.61,0,0,1,237.39-200,18.61,18.61,0,0,1,256-218.61,18.61,18.61,0,0,1,274.61-200Z"/></svg>