<svg id="Capa_1" data-name="Capa 1" xmlns="http://www.w3.org/2000/svg" xmlns:xlink="http://www.w3.org/1999/xlink" viewBox="0 0 56 56"><defs><style>.cls-1,.cls-2{fill:none;}.cls-2{stroke:#8c9ba3;stroke-miterlimit:10;}.cls-3{clip-path:url(#clip-path);}.cls-4{clip-path:url(#clip-path-2);}.cls-5{clip-path:url(#clip-path-3);}.cls-6{clip-path:url(#clip-path-5);}.cls-7{clip-path:url(#clip-path-6);}.cls-8{fill:#8c9ba3;}.cls-9{fill:#fff;fill-rule:evenodd;}</style><clipPath id="clip-path"><rect class="cls-1" x="82.39" y="7.1" width="19.12" height="42.53"/></clipPath><clipPath id="clip-path-2"><rect class="cls-1" x="-44.04" y="-602.94" width="596" height="1418"/></clipPath><clipPath id="clip-path-3"><rect class="cls-1" x="106.49" y="7.1" width="19.12" height="42.53"/></clipPath><clipPath id="clip-path-5"><path class="cls-2" d="M198.61-48A18.61,18.61,0,0,1,180-29.39,18.61,18.61,0,0,1,161.39-48,18.61,18.61,0,0,1,180-66.61,18.61,18.61,0,0,1,198.61-48Z"/></clipPath><clipPath id="clip-path-6"><rect class="cls-2" x="-284.67" y="-457.92" width="596" height="1418"/></clipPath></defs><title>Gris_Sociedad_2_ProteccionSocial_2</title><g class="cls-6"><g class="cls-7"><rect class="cls-2" x="-284.67" y="-457.92" width="596" height="1418"/></g><rect class="cls-2" x="-284.67" y="-457.92" width="596" height="1418"/><g class="cls-7"><rect class="cls-2" x="-284.67" y="-457.92" width="596" height="1418"/></g><rect class="cls-2" x="-284.67" y="-457.92" width="596" height="1418"/><g class="cls-7"><rect class="cls-2" x="-284.67" y="-457.92" width="596" height="1418"/></g><rect class="cls-2" x="-284.67" y="-457.92" width="596" height="1418"/><g class="cls-7"><rect class="cls-2" x="-284.67" y="-457.92" width="596" height="1418"/></g><rect class="cls-2" x="-284.67" y="-457.92" width="596" height="1418"/></g><path class="cls-2" d="M198.61-48A18.61,18.61,0,0,1,180-29.39,18.61,18.61,0,0,1,161.39-48,18.61,18.61,0,0,1,180-66.61,18.61,18.61,0,0,1,198.61-48Z"/><rect class="cls-8" width="56" height="56" rx="4.2"/><path class="cls-9" d="M10.11,8.33S7.08,40,27.8,47.65a.9.9,0,0,0,.4,0C48.92,40,45.89,8.33,45.89,8.33s-6,4.14-9,4.14-3-3.72-3-3.72H22.13s0,3.72-3,3.72S10.11,8.33,10.11,8.33Z"/><line class="cls-2" x1="5.24" y1="28.6" x2="47.74" y2="28.6"/><line class="cls-2" x1="28" y1="3.75" x2="28" y2="54.65"/></svg>