<svg id="Capa_1" data-name="Capa 1" xmlns="http://www.w3.org/2000/svg" xmlns:xlink="http://www.w3.org/1999/xlink" viewBox="0 0 56 56"><defs><style>.cls-1,.cls-10,.cls-11,.cls-12,.cls-13,.cls-2{fill:none;}.cls-10,.cls-11,.cls-12,.cls-13,.cls-2{stroke:#8c9ba3;}.cls-2{stroke-miterlimit:10;}.cls-3{clip-path:url(#clip-path);}.cls-4{clip-path:url(#clip-path-2);}.cls-5{clip-path:url(#clip-path-3);}.cls-6{fill:#8c9ba3;}.cls-7{fill:#fff;}.cls-8{clip-path:url(#clip-path-5);}.cls-9{clip-path:url(#clip-path-6);}.cls-10,.cls-11,.cls-12,.cls-13{stroke-linecap:round;stroke-linejoin:round;}.cls-10{stroke-width:1.92px;}.cls-11{stroke-width:1.92px;}.cls-12{stroke-width:1.92px;}.cls-13{stroke-width:1.92px;}</style><clipPath id="clip-path"><rect class="cls-1" x="-69.61" y="83.1" width="19.12" height="42.53"/></clipPath><clipPath id="clip-path-2"><rect class="cls-1" x="-196.04" y="-526.94" width="596" height="1418"/></clipPath><clipPath id="clip-path-3"><rect class="cls-1" x="-45.51" y="83.1" width="19.12" height="42.53"/></clipPath><clipPath id="clip-path-5"><path class="cls-2" d="M46.61,28A18.61,18.61,0,1,1,28,9.39,18.61,18.61,0,0,1,46.61,28Z"/></clipPath><clipPath id="clip-path-6"><rect class="cls-2" x="-436.67" y="-381.92" width="596" height="1418"/></clipPath></defs><title>Gris_Sociedad_2_Cult_Dep_Ocio</title><path class="cls-6" d="M56,4.2V51.8A4.19,4.19,0,0,1,51.8,56H4.2A4.19,4.19,0,0,1,0,51.8V4.2A4.2,4.2,0,0,1,4.2,0H51.8A4.19,4.19,0,0,1,56,4.2Z"/><path class="cls-7" d="M45.11,28A17.11,17.11,0,1,1,28,10.89,17.11,17.11,0,0,1,45.11,28Z"/><g class="cls-8"><g class="cls-9"><g class="cls-9"><path class="cls-10" d="M22,54.58c-9.08-2-16.29-13.36-16.1-25.38S13.62,9.05,22.7,11,39,24.4,38.79,36.42,31.07,56.57,22,54.58Z"/></g><rect class="cls-2" x="-436.67" y="-381.92" width="596" height="1418"/></g><rect class="cls-2" x="-436.67" y="-381.92" width="596" height="1418"/><g class="cls-9"><g class="cls-9"><path class="cls-11" d="M15.94,49.87c-3.6-8.58,1.54-21,11.48-27.78s20.92-5.3,24.52,3.28-1.53,21-11.48,27.77S19.54,58.44,15.94,49.87Z"/></g><rect class="cls-2" x="-436.67" y="-381.92" width="596" height="1418"/></g><rect class="cls-2" x="-436.67" y="-381.92" width="596" height="1418"/><g class="cls-9"><g class="cls-9"><path class="cls-12" d="M40.47,68.36c-8.91-2.66-15.26-14.52-14.18-26.5S35.46,22.33,44.38,25,59.64,39.5,58.57,51.48,49.39,71,40.47,68.36Z"/></g><rect class="cls-2" x="-436.67" y="-381.92" width="596" height="1418"/></g><rect class="cls-2" x="-436.67" y="-381.92" width="596" height="1418"/><g class="cls-9"><g class="cls-9"><path class="cls-13" d="M27.42,17.4c-8.48,3.82-21-1-28.06-10.76S-6.48-14.14,2-18,23-17,30.06-7.2,35.89,13.57,27.42,17.4Z"/></g><rect class="cls-2" x="-436.67" y="-381.92" width="596" height="1418"/></g><rect class="cls-2" x="-436.67" y="-381.92" width="596" height="1418"/></g><path class="cls-2" d="M46.61,28A18.61,18.61,0,1,1,28,9.39,18.61,18.61,0,0,1,46.61,28Z"/></svg>