<svg id="Capa_1" data-name="Capa 1" xmlns="http://www.w3.org/2000/svg" xmlns:xlink="http://www.w3.org/1999/xlink" viewBox="0 0 56 56"><defs><style>.cls-1,.cls-2{fill:none;}.cls-2{stroke:#8c9ba3;stroke-miterlimit:10;}.cls-3{clip-path:url(#clip-path);}.cls-4{clip-path:url(#clip-path-2);}.cls-5{clip-path:url(#clip-path-3);}.cls-6{clip-path:url(#clip-path-5);}.cls-7{clip-path:url(#clip-path-6);}.cls-8{fill:#8c9ba3;}.cls-9{fill:#fff;}</style><clipPath id="clip-path"><rect class="cls-1" x="158.39" y="-220.9" width="19.12" height="42.53"/></clipPath><clipPath id="clip-path-2"><rect class="cls-1" x="31.96" y="-830.94" width="596" height="1418"/></clipPath><clipPath id="clip-path-3"><rect class="cls-1" x="182.49" y="-220.9" width="19.12" height="42.53"/></clipPath><clipPath id="clip-path-5"><path class="cls-2" d="M274.61-276A18.61,18.61,0,0,1,256-257.39,18.61,18.61,0,0,1,237.39-276,18.61,18.61,0,0,1,256-294.61,18.61,18.61,0,0,1,274.61-276Z"/></clipPath><clipPath id="clip-path-6"><rect class="cls-2" x="-208.67" y="-685.92" width="596" height="1418"/></clipPath></defs><title>Gris_SectorServicios_2_Financieros_Monetarios</title><g class="cls-6"><g class="cls-7"><rect class="cls-2" x="-208.67" y="-685.92" width="596" height="1418"/></g><rect class="cls-2" x="-208.67" y="-685.92" width="596" height="1418"/><g class="cls-7"><rect class="cls-2" x="-208.67" y="-685.92" width="596" height="1418"/></g><rect class="cls-2" x="-208.67" y="-685.92" width="596" height="1418"/><g class="cls-7"><rect class="cls-2" x="-208.67" y="-685.92" width="596" height="1418"/></g><rect class="cls-2" x="-208.67" y="-685.92" width="596" height="1418"/><g class="cls-7"><rect class="cls-2" x="-208.67" y="-685.92" width="596" height="1418"/></g><rect class="cls-2" x="-208.67" y="-685.92" width="596" height="1418"/></g><path class="cls-2" d="M274.61-276A18.61,18.61,0,0,1,256-257.39,18.61,18.61,0,0,1,237.39-276,18.61,18.61,0,0,1,256-294.61,18.61,18.61,0,0,1,274.61-276Z"/><rect class="cls-8" width="56" height="56" rx="4.2"/><path class="cls-9" d="M29.79,16.1c3.19-2.68,5.32-8.73,4-9-1.75-.35-6.59,1.9-8.42,2.17-2.6.31-4.08-1.26-5.67.49-1.29,1.41.64,4.3,4.11,6.55C13.47,21.41-1.07,47,24.3,48.77,61.39,51.34,41.82,21.05,29.79,16.1Z"/><path class="cls-8" d="M34.07,23.05,33.24,27a4.76,4.76,0,0,0-3.51-1.2A4.69,4.69,0,0,0,26,27.42a5.46,5.46,0,0,0-1.15,2.35h7.79L32.18,32H24.55c0,.22,0,.51,0,.85s0,.67,0,1h7.2L31.32,36H24.87A5.56,5.56,0,0,0,26,38.39a4.6,4.6,0,0,0,3.69,1.67A5.73,5.73,0,0,0,34,38.39v4.34a9.45,9.45,0,0,1-4.3.93,8.92,8.92,0,0,1-6.8-2.85A9.59,9.59,0,0,1,20.49,36H18.4l.45-2.19h1.39c0-.23,0-.47,0-.74,0-.42,0-.8,0-1.14H18.4l.45-2.18h1.69a9.57,9.57,0,0,1,2.36-4.72A9.18,9.18,0,0,1,30,22.19,9.3,9.3,0,0,1,34.07,23.05Z"/></svg>