<svg id="Capa_1" data-name="Capa 1" xmlns="http://www.w3.org/2000/svg" xmlns:xlink="http://www.w3.org/1999/xlink" viewBox="0 0 56 56"><defs><style>.cls-1,.cls-10,.cls-12,.cls-2{fill:none;}.cls-10,.cls-12,.cls-2{stroke:#8c9ba3;}.cls-2{stroke-miterlimit:10;}.cls-3{clip-path:url(#clip-path);}.cls-4{clip-path:url(#clip-path-2);}.cls-5{clip-path:url(#clip-path-3);}.cls-6{clip-path:url(#clip-path-5);}.cls-7{clip-path:url(#clip-path-6);}.cls-8{fill:#8c9ba3;}.cls-11,.cls-9{fill:#fff;}.cls-10{stroke-linecap:round;stroke-linejoin:round;stroke-width:0.56px;}.cls-11{fill-rule:evenodd;}.cls-12{stroke-width:0.4px;}</style><clipPath id="clip-path"><rect class="cls-1" x="6.39" y="-144.9" width="19.12" height="42.53"/></clipPath><clipPath id="clip-path-2"><rect class="cls-1" x="-120.04" y="-754.94" width="596" height="1418"/></clipPath><clipPath id="clip-path-3"><rect class="cls-1" x="30.49" y="-144.9" width="19.12" height="42.53"/></clipPath><clipPath id="clip-path-5"><path class="cls-2" d="M122.61-200A18.61,18.61,0,0,1,104-181.39,18.61,18.61,0,0,1,85.39-200,18.61,18.61,0,0,1,104-218.61,18.61,18.61,0,0,1,122.61-200Z"/></clipPath><clipPath id="clip-path-6"><rect class="cls-2" x="-360.67" y="-609.92" width="596" height="1418"/></clipPath></defs><title>Gris_SectorServicios_2_Comercio</title><g class="cls-6"><g class="cls-7"><rect class="cls-2" x="-360.67" y="-609.92" width="596" height="1418"/></g><rect class="cls-2" x="-360.67" y="-609.92" width="596" height="1418"/><g class="cls-7"><rect class="cls-2" x="-360.67" y="-609.92" width="596" height="1418"/></g><rect class="cls-2" x="-360.67" y="-609.92" width="596" height="1418"/><g class="cls-7"><rect class="cls-2" x="-360.67" y="-609.92" width="596" height="1418"/></g><rect class="cls-2" x="-360.67" y="-609.92" width="596" height="1418"/><g class="cls-7"><rect class="cls-2" x="-360.67" y="-609.92" width="596" height="1418"/></g><rect class="cls-2" x="-360.67" y="-609.92" width="596" height="1418"/></g><path class="cls-2" d="M122.61-200A18.61,18.61,0,0,1,104-181.39,18.61,18.61,0,0,1,85.39-200,18.61,18.61,0,0,1,104-218.61,18.61,18.61,0,0,1,122.61-200Z"/><path class="cls-8" d="M56,4.2V51.8A4.19,4.19,0,0,1,51.8,56H4.2A4.19,4.19,0,0,1,0,51.8V4.2A4.19,4.19,0,0,1,4.2,0H51.8A4.19,4.19,0,0,1,56,4.2Z"/><rect class="cls-9" x="9.81" y="23.78" width="22.14" height="20.08"/><rect class="cls-9" x="42.97" y="23.78" width="2.92" height="20.08"/><rect class="cls-8" x="12.47" y="25.09" width="16.83" height="8.77"/><path class="cls-9" d="M7.21,20.82v3.92h0a2.85,2.85,0,0,0,2.07,2.37,5.93,5.93,0,0,0,4.15,0,2.87,2.87,0,0,0,2.07-2.37h0a2.87,2.87,0,0,0,2.07,2.37,5.93,5.93,0,0,0,4.15,0,2.85,2.85,0,0,0,2.07-2.37h0a2.85,2.85,0,0,0,2.07,2.37,5.9,5.9,0,0,0,4.14,0,2.84,2.84,0,0,0,2.07-2.37h0a2.85,2.85,0,0,0,2.07,2.37,5.9,5.9,0,0,0,4.14,0,2.87,2.87,0,0,0,2.08-2.37h0a2.87,2.87,0,0,0,2.07,2.37,5.93,5.93,0,0,0,4.15,0,2.85,2.85,0,0,0,2.07-2.37V20.82Z"/><path class="cls-10" d="M7.21,20.82v3.92h0a2.85,2.85,0,0,0,2.07,2.37,5.93,5.93,0,0,0,4.15,0,2.87,2.87,0,0,0,2.07-2.37h0a2.87,2.87,0,0,0,2.07,2.37,5.93,5.93,0,0,0,4.15,0,2.85,2.85,0,0,0,2.07-2.37h0a2.85,2.85,0,0,0,2.07,2.37,5.9,5.9,0,0,0,4.14,0,2.84,2.84,0,0,0,2.07-2.37h0a2.85,2.85,0,0,0,2.07,2.37,5.9,5.9,0,0,0,4.14,0,2.87,2.87,0,0,0,2.08-2.37h0a2.87,2.87,0,0,0,2.07,2.37,5.93,5.93,0,0,0,4.15,0,2.85,2.85,0,0,0,2.07-2.37V20.82Z"/><polygon class="cls-11" points="48.6 21.03 43.43 12.34 12.43 12.34 7.4 21.03 48.6 21.03"/><polygon class="cls-12" points="48.6 21.03 43.43 12.34 12.43 12.34 7.4 21.03 48.6 21.03"/></svg>