<svg id="Capa_1" data-name="Capa 1" xmlns="http://www.w3.org/2000/svg" xmlns:xlink="http://www.w3.org/1999/xlink" viewBox="0 0 56 56"><defs><style>.cls-1,.cls-10,.cls-2{fill:none;}.cls-2{stroke:#8c9ba3;stroke-miterlimit:10;}.cls-3{clip-path:url(#clip-path);}.cls-4{clip-path:url(#clip-path-2);}.cls-5{clip-path:url(#clip-path-3);}.cls-6{clip-path:url(#clip-path-5);}.cls-7{clip-path:url(#clip-path-6);}.cls-8{fill:#8c9ba3;}.cls-9{fill:#fff;}.cls-10{stroke:#fff;stroke-linecap:round;stroke-linejoin:round;stroke-width:4.31px;}</style><clipPath id="clip-path"><rect class="cls-1" x="6.39" y="83.1" width="19.12" height="42.53"/></clipPath><clipPath id="clip-path-2"><rect class="cls-1" x="-120.04" y="-526.94" width="596" height="1418"/></clipPath><clipPath id="clip-path-3"><rect class="cls-1" x="30.49" y="83.1" width="19.12" height="42.53"/></clipPath><clipPath id="clip-path-5"><path class="cls-2" d="M122.61,28A18.61,18.61,0,1,1,104,9.39,18.61,18.61,0,0,1,122.61,28Z"/></clipPath><clipPath id="clip-path-6"><rect class="cls-2" x="-360.67" y="-381.92" width="596" height="1418"/></clipPath></defs><title>Gris_Sociedad_2_Educacion</title><g class="cls-6"><g class="cls-7"><rect class="cls-2" x="-360.67" y="-381.92" width="596" height="1418"/></g><rect class="cls-2" x="-360.67" y="-381.92" width="596" height="1418"/><g class="cls-7"><rect class="cls-2" x="-360.67" y="-381.92" width="596" height="1418"/></g><rect class="cls-2" x="-360.67" y="-381.92" width="596" height="1418"/><g class="cls-7"><rect class="cls-2" x="-360.67" y="-381.92" width="596" height="1418"/></g><rect class="cls-2" x="-360.67" y="-381.92" width="596" height="1418"/><g class="cls-7"><rect class="cls-2" x="-360.67" y="-381.92" width="596" height="1418"/></g><rect class="cls-2" x="-360.67" y="-381.92" width="596" height="1418"/></g><path class="cls-2" d="M122.61,28A18.61,18.61,0,1,1,104,9.39,18.61,18.61,0,0,1,122.61,28Z"/><path class="cls-8" d="M56,4.2V51.8A4.19,4.19,0,0,1,51.8,56H4.2A4.19,4.19,0,0,1,0,51.8V4.2A4.19,4.19,0,0,1,4.2,0H51.8A4.19,4.19,0,0,1,56,4.2Z"/><path class="cls-9" d="M13,26.65v7.83c0,3.85,5.71,8,14.67,8s16.74-4.3,16.69-8V26.65s-13,6-15.68,6S13,26.65,13,26.65Z"/><polygon class="cls-9" points="28.48 14.9 47.82 22.2 28.48 29.5 9.15 22.2 28.48 14.9"/><polygon class="cls-10" points="28.48 14.9 47.82 22.2 28.48 29.5 9.15 22.2 28.48 14.9"/><rect class="cls-9" x="5.92" y="22.21" width="1.5" height="18.1"/><path class="cls-9" d="M8.67,38.65c0,2-.89,3.65-2,3.65s-2-1.64-2-3.65.9-3.67,2-3.67S8.67,36.62,8.67,38.65Z"/></svg>