<svg id="Capa_1" data-name="Capa 1" xmlns="http://www.w3.org/2000/svg" xmlns:xlink="http://www.w3.org/1999/xlink" viewBox="0 0 56 56"><defs><style>.cls-1{fill:none;stroke:#8c9ba3;stroke-miterlimit:10;}.cls-2{clip-path:url(#clip-path);}.cls-3{clip-path:url(#clip-path-2);}.cls-4{fill:#8c9ba3;}.cls-5{fill:#fff;}</style><clipPath id="clip-path"><path class="cls-1" d="M350.61-200A18.61,18.61,0,0,1,332-181.39,18.61,18.61,0,0,1,313.39-200,18.61,18.61,0,0,1,332-218.61,18.61,18.61,0,0,1,350.61-200Z"/></clipPath><clipPath id="clip-path-2"><rect class="cls-1" x="-132.67" y="-609.92" width="596" height="1418"/></clipPath></defs><title>Gris_SectorSecundario_2_Industria_Energia_Agua</title><g class="cls-2"><g class="cls-3"><rect class="cls-1" x="-132.67" y="-609.92" width="596" height="1418"/></g><rect class="cls-1" x="-132.67" y="-609.92" width="596" height="1418"/><g class="cls-3"><rect class="cls-1" x="-132.67" y="-609.92" width="596" height="1418"/></g><rect class="cls-1" x="-132.67" y="-609.92" width="596" height="1418"/><g class="cls-3"><rect class="cls-1" x="-132.67" y="-609.92" width="596" height="1418"/></g><rect class="cls-1" x="-132.67" y="-609.92" width="596" height="1418"/><g class="cls-3"><rect class="cls-1" x="-132.67" y="-609.92" width="596" height="1418"/></g><rect class="cls-1" x="-132.67" y="-609.92" width="596" height="1418"/></g><path class="cls-1" d="M350.61-200A18.61,18.61,0,0,1,332-181.39,18.61,18.61,0,0,1,313.39-200,18.61,18.61,0,0,1,332-218.61,18.61,18.61,0,0,1,350.61-200Z"/><rect class="cls-4" width="56" height="56" rx="4.2"/><polygon class="cls-5" points="40.05 28.36 30.77 24.56 45.5 3.6 14.62 27.53 25.17 31.08 10.5 52.4 40.05 28.36"/></svg>