<svg id="Capa_1" data-name="Capa 1" xmlns="http://www.w3.org/2000/svg" xmlns:xlink="http://www.w3.org/1999/xlink" viewBox="0 0 56 56"><defs><style>.cls-1,.cls-4{fill:none;stroke:#8c9ba3;}.cls-1{stroke-miterlimit:10;}.cls-2,.cls-5{fill:#8c9ba3;}.cls-3{fill:#fff;}.cls-4{stroke-linecap:round;stroke-linejoin:round;stroke-width:2.32px;}.cls-5{fill-rule:evenodd;}.cls-6{clip-path:url(#clip-path);}.cls-7{clip-path:url(#clip-path-2);}</style><clipPath id="clip-path"><path class="cls-1" d="M350.61,104A18.61,18.61,0,1,1,332,85.39,18.61,18.61,0,0,1,350.61,104Z"/></clipPath><clipPath id="clip-path-2"><rect class="cls-1" x="-132.67" y="-305.92" width="596" height="1418"/></clipPath></defs><title>Gris_TTMM_2_UsoSuelo</title><rect class="cls-2" width="56" height="56" rx="4.2"/><polygon class="cls-3" points="48.85 45.07 5.34 45.07 27.1 7.39 48.85 45.07"/><polyline class="cls-4" points="8.93 18.91 15.93 15.11 24.13 22.71 28.34 18.71 32.73 23.91 41.34 15.71"/><path class="cls-5" d="M3.13,48.91c-.4-6.2,9.6-5.8,13.21-5.8,3.84,0,8,1.55,11.64,1.55,3.91,0,5.95-3.35,9.56-3.35,8.3,0,11.3,4.44,14.19,4.6"/><g class="cls-6"><g class="cls-7"><rect class="cls-1" x="-132.67" y="-305.92" width="596" height="1418"/></g><rect class="cls-1" x="-132.67" y="-305.92" width="596" height="1418"/><g class="cls-7"><rect class="cls-1" x="-132.67" y="-305.92" width="596" height="1418"/></g><rect class="cls-1" x="-132.67" y="-305.92" width="596" height="1418"/><g class="cls-7"><rect class="cls-1" x="-132.67" y="-305.92" width="596" height="1418"/></g><rect class="cls-1" x="-132.67" y="-305.92" width="596" height="1418"/><g class="cls-7"><rect class="cls-1" x="-132.67" y="-305.92" width="596" height="1418"/></g><rect class="cls-1" x="-132.67" y="-305.92" width="596" height="1418"/></g><path class="cls-1" d="M350.61,104A18.61,18.61,0,1,1,332,85.39,18.61,18.61,0,0,1,350.61,104Z"/></svg>