<svg id="Capa_1" data-name="Capa 1" xmlns="http://www.w3.org/2000/svg" xmlns:xlink="http://www.w3.org/1999/xlink" viewBox="0 0 56 56"><defs><style>.cls-1,.cls-2{fill:none;}.cls-2{stroke:#8c9ba3;stroke-miterlimit:10;}.cls-3{clip-path:url(#clip-path);}.cls-4{clip-path:url(#clip-path-2);}.cls-5{clip-path:url(#clip-path-3);}.cls-6{fill:#8c9ba3;}.cls-7{fill:#fff;}.cls-8{clip-path:url(#clip-path-5);}.cls-9{clip-path:url(#clip-path-6);}</style><clipPath id="clip-path"><rect class="cls-1" x="158.39" y="159.1" width="19.12" height="42.53"/></clipPath><clipPath id="clip-path-2"><rect class="cls-1" x="31.96" y="-450.94" width="596" height="1418"/></clipPath><clipPath id="clip-path-3"><rect class="cls-1" x="182.49" y="159.1" width="19.12" height="42.53"/></clipPath><clipPath id="clip-path-5"><path class="cls-2" d="M274.61,104A18.61,18.61,0,1,1,256,85.39,18.61,18.61,0,0,1,274.61,104Z"/></clipPath><clipPath id="clip-path-6"><rect class="cls-2" x="-208.67" y="-305.92" width="596" height="1418"/></clipPath></defs><title>Gris_TTMM_2_MedioAmbiente</title><rect class="cls-6" width="56" height="56" rx="4.2"/><path class="cls-7" d="M6.21,20.49,9,22.65l-2.6,5c-1.29,2.29.93,4.52,2.36,5.3s3.56.85,5.59.83l3.65-6,2.75,1.49-4.78-8.86Z"/><path class="cls-7" d="M6.62,32.66l5.92,10.93c1.19,1.52,3.43,1.88,5.75,1.82h6.25V35.06L12.7,35A7.35,7.35,0,0,1,6.62,32.66Z"/><path class="cls-7" d="M43.85,12.51l-3.22,1.37L37.54,9.2C36.16,7,33.13,7.82,31.77,8.69s-2.48,2.7-3.44,4.49l3.45,6.08L29.14,21l10.07.11Z"/><path class="cls-7" d="M33,7,20.58,6.84c-1.9.31-3.3,2.09-4.38,4.15l-3,5.46,9.06,5L28,11.16A7.35,7.35,0,0,1,33,7Z"/><path class="cls-7" d="M33.55,49.15l.37-3.47,5.59-.44c2.63-.11,3.34-3.19,3.25-4.8S41.59,37,40.5,35.26l-7,.06-.2-3.12-5,8.75Z"/><path class="cls-7" d="M43.66,42.36l6.13-10.81c.66-1.81-.22-3.9-1.51-5.85L45,20.41,36.2,25.9,42.4,36A7.35,7.35,0,0,1,43.66,42.36Z"/><g class="cls-8"><g class="cls-9"><rect class="cls-2" x="-208.67" y="-305.92" width="596" height="1418"/></g><rect class="cls-2" x="-208.67" y="-305.92" width="596" height="1418"/><g class="cls-9"><rect class="cls-2" x="-208.67" y="-305.92" width="596" height="1418"/></g><rect class="cls-2" x="-208.67" y="-305.92" width="596" height="1418"/><g class="cls-9"><rect class="cls-2" x="-208.67" y="-305.92" width="596" height="1418"/></g><rect class="cls-2" x="-208.67" y="-305.92" width="596" height="1418"/><g class="cls-9"><rect class="cls-2" x="-208.67" y="-305.92" width="596" height="1418"/></g><rect class="cls-2" x="-208.67" y="-305.92" width="596" height="1418"/></g><path class="cls-2" d="M274.61,104A18.61,18.61,0,1,1,256,85.39,18.61,18.61,0,0,1,274.61,104Z"/></svg>